<svg width="513" height="348" viewBox="0 0 513 348" fill="none" xmlns="http://www.w3.org/2000/svg">
<path d="M461.527 234.529C456.329 232.805 453.882 226.909 456.345 222.016C462.715 209.338 466.309 195.009 466.309 179.846C466.309 130.997 429.064 90.8543 381.438 86.3111C376.764 85.8635 373.253 81.8811 373.376 77.1836C373.381 76.9777 373.386 76.7668 373.391 76.561C374.132 35.8059 341.663 1.74984 300.942 0.679637C265.173 -0.261934 234.915 24.0491 226.678 57.0813C225.49 61.8457 220.683 64.7785 215.922 63.5848C207.947 61.5885 199.592 60.5543 190.991 60.6057C135.812 60.9299 91.6154 105.431 91.6154 160.649C91.6154 169.401 92.7363 177.896 94.8494 185.984C96.4176 191.988 91.5846 197.782 85.4147 197.144C82.8028 196.876 80.1498 196.737 77.466 196.737C35.1358 196.737 0.821289 231.076 0.821289 273.437C0.821289 293.858 8.80093 312.427 21.8141 326.175H497.348C502.428 317.006 505.323 306.459 505.323 295.232C505.323 266.944 486.968 242.957 461.527 234.529Z" fill="#052052"/>
<path d="M257.784 347.636C389.135 347.636 495.616 338.253 495.616 326.679C495.616 315.105 389.135 305.723 257.784 305.723C126.434 305.723 19.9529 315.105 19.9529 326.679C19.9529 338.253 126.434 347.636 257.784 347.636Z" fill="#0B1A35"/>
<path d="M130.197 294.306L126.933 296.307L124.136 295.206L121.94 297.408L117.045 305.8L120.521 307.4L124.634 310.595L130.197 308.398H134.521L134.922 303.901L137.719 300.403L134.126 298.808L130.197 294.306Z" fill="white"/>
<path d="M132.588 297.048L130.979 301.401L135.55 299.441L134.126 298.808L132.588 297.048Z" fill="#B1D1FA"/>
<path d="M125.143 295.602L126.799 298.607L128.084 295.602L126.799 296.307L125.143 295.602Z" fill="#B1D1FA"/>
<path d="M120.521 307.4L124.634 310.595L124.537 304.401L120.521 307.4Z" fill="#B1D1FA"/>
<path d="M129.437 308.702L130.197 308.398H132.958L129.663 304.601L129.437 308.702Z" fill="#B1D1FA"/>
<path d="M122.578 299.471L122.007 302.27L125.334 301.869L127.035 301.668L126.167 300.269L122.578 299.471Z" fill="#B1D1FA"/>
<path d="M138.306 297.218L132.1 298.267L128.557 302.342L130.326 307.138L127.113 310.616L128.82 314.295L136.3 317.84L145.082 314.295L149.499 305.754L138.928 301.684L138.306 297.218Z" fill="white"/>
<path d="M138.614 299.446L136.234 304.704L137.879 308.578L137.941 305.754L140.974 302.471L138.928 301.684L138.614 299.446Z" fill="#B1D1FA"/>
<path d="M130.326 307.138L127.113 310.616L129.802 310.683L132.429 309.432V306.896L129.041 303.649L130.326 307.138Z" fill="#B1D1FA"/>
<path d="M139.977 310.683L137.416 313.245L136.301 317.84L145.082 314.295L141.355 311.799L139.977 310.683Z" fill="#B1D1FA"/>
<path d="M126.727 314.511L127.411 310.163L124.917 307.529L120.907 308.522L117.93 310.847L119.745 315.427L116.346 319.831L118.624 324.58L125.781 328.017L132.213 324.812L133.925 318.859L129.76 315.427L126.727 314.511Z" fill="white"/>
<path d="M123.637 318.632L125.133 321.035V319.28L124.917 317.145L126.727 314.511L127.411 310.163L124.053 313.94L123.637 318.632Z" fill="#B1D1FA"/>
<path d="M119.745 315.427L119.462 315.792L116.346 319.831L120.506 317.773L121.997 314.794L117.93 310.847L119.745 315.427Z" fill="#B1D1FA"/>
<path d="M128.84 319.831L126.208 323.551L125.781 328.017L132.213 324.811L130.727 322.578L128.84 319.831Z" fill="#B1D1FA"/>
<path d="M151.031 311.167H148.188L141.704 313.461L138.306 316.785L133.169 315.2L135.066 320.5L140.681 323.824L141.154 328.331L147.792 326.592C147.792 326.592 154.589 324.457 154.671 324.06C154.748 323.664 153.725 317.727 153.725 317.727L151.031 311.167Z" fill="white"/>
<path d="M138.306 316.785L142.1 319.296V316.209L142.871 314.665L141.704 313.461L138.306 316.785Z" fill="#B1D1FA"/>
<path d="M143.401 322.378L140.676 323.824L141.149 328.331L147.792 326.592L148.681 322.064L147.195 323.103L143.401 322.378Z" fill="#B1D1FA"/>
<path d="M150.219 314.665L151.288 318.051H153.771L151.031 311.167L150.219 314.665Z" fill="#B1D1FA"/>
<path d="M205.531 254.847C203.598 253.952 203.192 247.232 202.914 239.823C202.652 232.774 202.549 225.586 202.616 218.455L198.436 218.409C198.369 225.617 198.466 232.882 198.734 240.003C199.125 250.469 199.587 256.982 203.875 258.968C204.616 259.308 205.408 259.483 206.251 259.483C207.32 259.483 208.472 259.205 209.69 258.655L208.071 254.518C207.325 254.857 206.271 255.187 205.531 254.847Z" fill="#091C41"/>
<path d="M201.304 206.246H200.05C196.687 206.246 193.962 208.973 193.962 212.338V219.711C193.962 223.076 196.687 225.802 200.05 225.802H201.304C204.667 225.802 207.392 223.076 207.392 219.711V212.338C207.392 208.973 204.667 206.246 201.304 206.246Z" fill="#091C41"/>
<path d="M222.097 196.948H201.721H199.335H178.96C178.96 196.948 175.222 196.948 174.687 205.561C174.152 214.169 174.152 221.059 178.96 221.635C181.299 221.913 191.083 221.918 200.528 221.856C209.973 221.923 219.757 221.918 222.097 221.635C226.904 221.059 226.904 214.169 226.369 205.561C225.835 196.948 222.097 196.948 222.097 196.948Z" fill="#DA3150"/>
<path d="M178.862 205.561C179.397 196.948 183.134 196.948 183.134 196.948H178.954C178.954 196.948 175.216 196.948 174.682 205.561C174.147 214.169 174.147 221.059 178.954 221.635C180.738 221.851 186.872 221.902 193.875 221.887C188.713 221.872 184.553 221.805 183.134 221.635C178.327 221.059 178.327 214.169 178.862 205.561Z" fill="#C42A44"/>
<path d="M202.616 221.866C205.639 221.882 208.636 221.892 211.356 221.887C209.187 221.882 206.94 221.872 204.708 221.856C204.009 221.861 203.31 221.861 202.616 221.866Z" fill="#C42A44"/>
<path d="M214.158 316.178H216.596L217.824 252.882H212.935L214.158 316.178Z" fill="#091C41"/>
<path d="M215.377 266.846H188.656C193.988 275.181 212.523 274.533 215.912 274.342C219.3 274.533 237.83 275.181 243.167 266.846H216.446H215.377Z" fill="#091C41"/>
<path d="M247.378 255.634C247.115 255.403 246.822 255.207 246.509 255.053C239.234 251.529 219.413 251.585 215.912 251.626C212.41 251.585 192.59 251.529 185.314 255.053C185.001 255.207 184.708 255.403 184.445 255.634C183.571 256.391 183.047 257.533 183.047 258.763V260.821C183.047 260.821 182.996 262.699 185.289 264.88C187.098 266.604 189.443 267.546 191.865 267.669C198.847 268.024 205.834 268.374 212.816 268.729C214.528 268.816 216.241 268.816 217.948 268.734C225.285 268.379 232.616 268.019 239.953 267.664C242.38 267.546 244.735 266.609 246.55 264.875C248.833 262.694 248.786 260.821 248.786 260.821V258.763C248.776 257.538 248.252 256.396 247.378 255.634Z" fill="#C42A44"/>
<path d="M246.509 255.058C239.234 251.534 219.413 251.59 215.912 251.631C212.41 251.59 192.59 251.534 185.314 255.058C185.001 255.212 184.708 255.408 184.446 255.64C184.446 255.876 184.471 256.298 184.651 256.802C186.317 261.629 196.965 260.533 214.045 260.244C235.341 259.884 246.894 261.109 247.712 257.373C247.861 256.694 247.604 256.087 247.383 255.634C247.116 255.408 246.823 255.212 246.509 255.058Z" fill="#DA3150"/>
<path d="M177.165 318.19L181.175 321.349C181.175 321.349 186.785 315.895 212.971 317.042L215.109 315.895C215.109 315.89 183.047 314.742 177.165 318.19Z" fill="#091C41"/>
<path d="M178.502 328.521C180.717 328.521 182.512 326.079 182.512 323.067C182.512 320.055 180.717 317.613 178.502 317.613C176.287 317.613 174.491 320.055 174.491 323.067C174.491 326.079 176.287 328.521 178.502 328.521Z" fill="#091C41"/>
<path d="M215.11 315.89L217.248 317.037C243.434 315.89 249.044 321.344 249.044 321.344L253.054 318.185C247.177 314.742 215.11 315.89 215.11 315.89Z" fill="#091C41"/>
<path d="M251.717 317.613C249.501 317.613 247.707 320.057 247.707 323.067C247.707 326.077 249.501 328.521 251.717 328.521C253.933 328.521 255.722 326.077 255.722 323.067C255.722 320.057 253.933 317.613 251.717 317.613Z" fill="#091C41"/>
<path d="M207.361 328.521C209.576 328.521 211.372 326.208 211.372 323.355C211.372 320.502 209.576 318.19 207.361 318.19C205.146 318.19 203.351 320.502 203.351 323.355C203.351 326.208 205.146 328.521 207.361 328.521Z" fill="#091C41"/>
<path d="M204.585 319.625L210.832 322.779L215.639 316.466H211.367C206.025 317.042 204.585 319.625 204.585 319.625Z" fill="#091C41"/>
<path d="M224.997 328.521C227.212 328.521 229.007 326.208 229.007 323.355C229.007 320.502 227.212 318.19 224.997 318.19C222.782 318.19 220.986 320.502 220.986 323.355C220.986 326.208 222.782 328.521 224.997 328.521Z" fill="#091C41"/>
<path d="M220.986 316.466H216.714L221.521 322.779L227.768 319.625C227.773 319.625 226.333 317.042 220.986 316.466Z" fill="#091C41"/>
<path d="M293.878 306.376C293.878 306.376 293.816 313.343 294.407 314.789C294.999 316.234 306.433 317.382 305.868 306.165L293.878 306.376Z" fill="white"/>
<path d="M251.918 309.911C251.918 309.911 251.393 313.147 250.91 314.295C250.427 315.442 249.028 317.588 252.221 317.938C255.414 318.287 262.283 317.938 262.283 317.938C262.283 317.938 264.7 315.921 263.949 310.276L251.918 309.911Z" fill="white"/>
<path d="M260.514 196.845C260.602 190.949 260.643 188.006 261.023 185.541C261.805 180.504 262.895 178.462 261.728 176.975C259.995 174.772 255.291 176.306 250.113 177.211C242.334 178.57 244.329 176.62 226.524 176.908C208.117 177.206 206.755 179.275 201.094 177.18C199.952 176.758 197.119 175.606 195.906 176.779C194.564 178.081 196.086 181.399 196.939 183.957C198.744 189.375 196.945 189.642 196.497 208.417C196.148 223.112 197.335 219.325 196.703 225.098C196.338 228.411 195.819 230.824 197.248 232.193C199.31 234.169 203.536 232.152 208.431 230.932C215.778 229.101 215.459 231.354 229.223 230.783C245.501 230.109 248.781 226.842 255.152 230.15C257.368 231.303 260.879 233.726 262.196 232.599C263.075 231.848 262.54 229.903 262.34 229.116C260.17 220.719 260.35 208.252 260.514 196.845Z" fill="#FFA417"/>
<path d="M252.113 219.242C228.55 209.647 207.115 181.502 207.115 181.502C205.639 184.754 204.009 189.591 204.276 195.399C204.467 199.603 205.485 200.648 206.035 204.671C207.572 215.965 201.382 220.981 203.886 224.372C206.801 228.313 215.716 222.293 233.038 221.861C246.452 221.522 256.782 224.748 257.224 223.034C257.527 221.851 253.383 219.762 252.113 219.242Z" fill="#FF910E"/>
<path d="M309.693 272.31C308.922 271.78 300.397 266.167 290.803 269.933C284.001 272.603 277.61 279.616 279.117 283.403C281.955 290.55 310.896 281.211 311.606 280.99C317.812 279.066 309.693 272.31 309.693 272.31Z" fill="#1A252C"/>
<path d="M278.546 281.103C278.088 280.033 277.451 278.844 276.582 277.543C272.648 278.371 244.55 284.468 241.383 293.354C241.259 293.699 241.095 294.28 241.254 294.897C241.285 294.995 241.306 295.062 241.321 295.103C241.337 295.144 241.352 295.185 241.373 295.221C244.041 300.979 275.728 299.528 279.296 288.044C279.343 287.9 279.384 287.74 279.43 287.565C279.188 285.79 278.952 284.046 278.715 282.328C278.659 281.916 278.602 281.51 278.546 281.103Z" fill="#1A252C"/>
<path d="M305.631 269.465L287.852 270.123L289.806 281.844L293.898 306.376C293.898 306.376 301.857 315.967 305.888 306.165L305.708 280.609L305.631 269.465Z" fill="#FFA286"/>
<path d="M305.606 280.444L305.611 280.64C302.459 281.746 296.88 283.022 289.806 281.839C289.795 281.808 289.785 281.777 289.775 281.741L289.199 282.271L290.5 285.981L293.898 306.366C293.898 306.366 301.857 315.957 305.888 306.155L305.739 285.096L306.274 280.774L305.606 280.444Z" fill="white"/>
<path d="M305.611 280.645C302.459 281.751 296.88 283.027 289.806 281.844C289.795 281.813 289.785 281.782 289.775 281.746L289.199 282.276L289.348 282.703L289.518 282.554C289.528 282.585 289.538 282.621 289.549 282.652C296.978 283.794 302.845 282.513 306.192 281.396L306.269 280.784L305.6 280.444L305.611 280.645Z" fill="#B1D1FA"/>
<path d="M303.611 281.582L303.287 281.571C303.281 281.726 302.932 296.94 303.703 308.743L304.027 308.712C303.256 296.93 303.605 281.736 303.611 281.582Z" fill="#B1D1FA"/>
<path d="M298.49 282.966C298.505 283.161 300.032 302.661 300.505 310.585L300.829 310.554C300.351 302.62 298.829 283.12 298.813 282.924L298.49 282.966Z" fill="#B1D1FA"/>
<path d="M293.204 283.084C293.23 283.238 295.729 298.911 296.371 308.836L296.695 308.805C296.047 298.854 293.549 283.166 293.523 283.007L293.204 283.084Z" fill="#B1D1FA"/>
<path d="M263.697 274.409L245.917 275.047L247.871 286.403L251.964 310.179C251.964 310.179 259.923 319.476 263.954 309.973L263.774 285.204L263.697 274.409Z" fill="#FFA286"/>
<path d="M263.671 285.055L263.676 285.245C260.525 286.315 254.946 287.555 247.871 286.408C247.861 286.377 247.851 286.346 247.84 286.315L247.265 286.83L248.565 290.426L251.964 310.189C251.964 310.189 259.923 319.486 263.954 309.983L263.805 289.572L264.34 285.384L263.671 285.055Z" fill="white"/>
<path d="M263.676 285.245C260.525 286.315 254.946 287.555 247.871 286.408C247.861 286.377 247.851 286.346 247.84 286.315L247.265 286.83L247.414 287.241L247.583 287.097C247.594 287.128 247.604 287.159 247.614 287.19C255.044 288.296 260.91 287.056 264.257 285.976L264.335 285.379L263.666 285.049L263.676 285.245Z" fill="#B1D1FA"/>
<path d="M261.676 286.156L261.352 286.145C261.347 286.295 260.997 301.046 261.769 312.484L262.093 312.453C261.321 301.03 261.671 286.3 261.676 286.156Z" fill="#B1D1FA"/>
<path d="M256.555 287.493C256.571 287.684 258.092 306.582 258.571 314.264L258.895 314.238C258.416 306.551 256.895 287.648 256.879 287.457L256.555 287.493Z" fill="#B1D1FA"/>
<path d="M251.27 287.607C251.295 287.761 253.794 302.944 254.437 312.566L254.761 312.535C254.113 302.888 251.614 287.684 251.589 287.529L251.27 287.607Z" fill="#B1D1FA"/>
<path d="M298.7 225.031C294.613 213.063 291.178 204.393 282.931 200.421C282.057 199.999 281.178 199.655 280.294 199.387C274.834 197.72 268.967 198.8 260 200.9C256.149 201.805 251.897 202.855 247.285 204.085C237.578 206.662 226.256 210.022 213.655 214.411C212.549 216.783 211.439 219.155 210.333 221.527C207.418 227.778 204.503 234.024 201.582 240.271C203.978 242.401 211.336 248.493 221.521 249.918C223.49 250.196 225.567 250.294 227.732 250.16C231.604 249.918 235.1 248.961 238.262 247.592C244.375 244.953 249.26 240.801 253.301 237.364C258.196 233.201 261.615 229.029 263.81 225.993C268.381 244.917 272.952 263.841 277.523 282.765C277.631 283.213 277.738 283.65 277.846 284.098C277.985 284.015 278.242 283.856 278.607 283.64C279.137 283.321 279.898 282.868 280.829 282.333C285.723 279.493 295.307 274.219 301.158 272.871C302.814 272.49 305.893 271.785 307.636 273.37C308.217 273.895 308.397 274.45 310.13 276.364C311.246 277.594 311.883 278.16 312.526 278.047C312.526 278.047 313.853 278.042 313.616 277.054C308.603 255.706 303.199 238.197 298.7 225.031Z" fill="#158362"/>
<path d="M278.715 282.328C278.659 281.916 278.602 281.51 278.546 281.103C276.926 269.418 275.337 258.943 273.898 249.861C269.137 219.85 266.813 210.573 259.63 206.143C259.445 206.024 259.255 205.916 259.064 205.808C257.795 205.093 255.208 203.843 245.162 204.085C243.352 204.126 241.295 204.218 238.966 204.373C223.634 205.371 211.295 207.985 203.078 210.12C197.34 211.396 191.597 212.672 185.854 213.948C185.438 217.894 185.428 221.692 185.782 225.262C187.093 238.707 193.443 248.915 201.788 251.611C206.904 253.268 213.881 252.46 219.403 249.918C219.444 249.903 219.475 249.887 219.516 249.867C228.539 245.663 231.419 237.817 234.334 238.82C235.82 239.324 235.984 241.675 236.149 247.592C236.205 249.645 236.257 252.12 236.37 255.104C237.367 282.096 240.704 293.174 241.254 294.897C241.285 294.995 241.306 295.062 241.321 295.103C241.326 295.124 241.331 295.139 241.331 295.144C241.337 295.175 241.347 295.196 241.357 295.206C241.362 295.211 241.367 295.216 241.373 295.222C241.414 295.258 241.475 295.268 241.527 295.232C243.846 293.621 247.198 291.43 251.409 289.124C261.322 283.701 269.306 279.328 274.854 282.42C275.029 282.518 275.214 282.631 275.409 282.765C275.749 282.991 276.114 283.274 276.494 283.635C277.42 284.53 278.417 285.883 279.235 287.972C279.25 288.008 279.271 288.029 279.296 288.044C279.373 288.08 279.487 288.023 279.476 287.91C279.461 287.797 279.445 287.679 279.43 287.565C279.188 285.79 278.952 284.046 278.715 282.328Z" fill="#15926A"/>
<path d="M257.882 200.905C254.031 201.81 249.779 202.86 245.167 204.09C243.357 204.131 241.3 204.224 238.971 204.373C223.639 205.371 211.3 207.99 203.084 210.12C197.34 211.396 191.597 212.672 185.859 213.948C185.443 217.894 185.433 221.691 185.787 225.262C192.399 224.737 200.081 223.384 208.22 221.527C225.28 217.627 244.329 211.499 259.635 206.143C266.844 203.616 273.224 201.26 278.181 199.387C272.715 197.72 266.844 198.801 257.882 200.905Z" fill="#1A252C"/>
<path d="M283.6 151.202C280.134 152.839 274.664 155.972 269.646 161.673C262.669 169.602 260.458 178.076 259.681 182.115C259.866 192.06 261.779 194.967 263.666 195.58C270.946 197.936 292.006 170.775 285.116 154.063C284.582 152.756 283.975 151.768 283.6 151.202Z" fill="black"/>
<path d="M258.334 152.972C252.473 161.776 272.705 208.474 272.705 208.474L290.021 204.594C290.021 204.594 294.561 171.948 281.204 147.879C281.199 147.879 264.196 144.169 258.334 152.972Z" fill="#FFA286"/>
<path d="M243.326 108.899C217.881 112.896 250.35 183.097 270.849 184.173C291.348 185.243 290.351 185.289 278.782 149.875C267.209 114.455 243.326 108.899 243.326 108.899Z" fill="#FFA286"/>
<path d="M177.469 113.802C154.193 134.727 163.468 175.2 165.509 184.111C168.857 198.729 174.985 209.734 179.464 216.521C187.109 215.795 195.86 214.442 205.377 212.034C212.374 210.259 218.704 208.185 224.313 206.05C233.624 199.588 251.311 185.279 261.188 160.675C265.821 149.139 270.34 137.804 266.17 127.267C256.771 103.527 203.402 90.489 177.469 113.802Z" fill="#033A51"/>
<path d="M266.16 121.283C262.802 117.923 256.524 112.593 246.591 108.899C245.624 124.283 246.067 137.012 246.725 146.212C247.825 161.56 249.619 168.135 250.709 171.644C253.743 181.389 257.99 188.793 261.172 193.583C261.512 188.073 262.926 177.561 269.646 166.659C274.268 159.152 279.728 154.181 283.6 151.202C282.649 148.563 281.204 144.915 279.116 140.732C276.139 134.758 272.659 127.776 266.16 121.283Z" fill="#033A51"/>
<path d="M265.347 146.011C265.013 147.997 264.499 149.947 263.908 151.871C263.625 152.839 263.275 153.78 262.957 154.737C262.602 155.679 262.257 156.625 261.867 157.552C261.111 159.419 260.293 161.261 259.399 163.067C257.651 166.7 255.671 170.224 253.599 173.692C252.555 175.421 251.486 177.139 250.375 178.832C249.285 180.54 248.144 182.207 246.977 183.869C249.614 180.787 252.021 177.499 254.237 174.098C256.458 170.692 258.489 167.163 260.273 163.499C262.036 159.831 263.584 156.039 264.638 152.087C265.723 148.162 266.273 144.04 265.913 139.991C265.898 142.013 265.713 144.025 265.347 146.011Z" fill="#0C292B"/>
<path d="M190.641 165.552C190.641 165.552 166.008 158.683 153.673 164.204C151.596 165.136 151.406 165.804 151.401 166.165C151.36 169.849 174.42 171.696 187.433 170.651C190.183 170.43 193.675 169.982 193.911 168.655C194.101 167.585 192.117 166.339 190.641 165.552Z" fill="black"/>
<path d="M188.43 113.581C188.43 113.581 177.469 109.423 165.509 133.338C153.55 157.253 144.367 187.522 160.918 191.885C177.468 196.248 220.318 132.299 188.43 113.581Z" fill="#FFA286"/>
<path d="M169.407 168.387C169.407 168.387 158.388 156.003 153.73 183.02C153.73 183.02 149.067 210.043 222.313 194.082C222.956 193.943 223.588 193.805 224.21 193.671L219.321 172.143L169.407 168.387Z" fill="#FFA286"/>
<path d="M187.932 106.825C182.595 108.986 175.289 112.927 169.494 120.29C167.463 122.873 165.201 126.403 159.53 142.229C157.483 147.935 154.764 155.874 151.869 165.552C155.967 164.765 160.733 164.179 166.039 164.112C177.612 163.962 187.196 166.334 193.911 168.655C195.664 164.508 197.927 158.56 199.891 151.202C202.739 140.531 204.256 134.599 202.878 127.766C200.842 117.661 193.428 110.735 187.932 106.825Z" fill="#033A51"/>
<path d="M202.672 125.78C202.266 124.535 201.757 123.331 201.155 122.173C199.947 119.863 198.353 117.774 196.513 115.958C194.651 114.162 192.574 112.598 190.338 111.343C194.595 114.188 198.261 117.964 200.482 122.518C200.744 123.094 201.022 123.66 201.233 124.252C201.474 124.833 201.664 125.435 201.86 126.032C202.215 127.241 202.467 128.471 202.605 129.721C202.888 132.217 202.724 134.758 202.353 137.269C202.014 139.79 201.49 142.296 200.996 144.812C200.513 147.323 199.906 149.798 199.217 152.262C197.819 157.176 196.029 161.987 193.911 166.659C196.374 162.151 198.415 157.402 199.947 152.478C200.729 150.024 201.361 147.518 201.901 144.997C202.425 142.486 202.955 139.965 203.32 137.403C203.675 134.846 203.844 132.217 203.521 129.608C203.351 128.311 203.068 127.025 202.672 125.78Z" fill="#0C292B"/>
<path d="M235.419 171.742C224.961 169.998 210.909 171.937 210.909 171.937C210.909 171.937 196.821 184.466 199.053 189.791C201.284 195.117 224.524 201.064 224.524 201.064C238.488 197.175 245.876 173.486 235.419 171.742Z" fill="#FFA286"/>
<path d="M237.871 172.761C237.085 173.039 232.051 174.886 231.784 178.132C231.645 179.789 232.802 181.106 235.27 183.617C237.619 186.01 240.792 189.097 244.735 192.59C245.568 194.088 246.396 195.58 247.229 197.077C247.938 200.411 250.041 202.906 252.71 203.56C253.172 203.673 255.486 204.239 256.694 203.061C259.399 200.432 254.082 191.35 251.712 186.606C250.715 184.61 237.871 172.761 237.871 172.761Z" fill="#FFA286"/>
<path d="M227.516 188.099C227.516 188.099 236.123 202.562 239.198 202.562C242.272 202.562 244.118 201.064 244.73 198.574C245.347 196.079 236.123 182.12 236.123 182.12L227.516 188.099Z" fill="#FFA286"/>
<path d="M219.742 189.596C219.742 189.596 228.349 204.059 231.424 204.059C234.498 204.059 236.344 202.562 236.956 200.071C237.568 197.581 228.349 183.617 228.349 183.617L219.742 189.596Z" fill="#FFA286"/>
<path d="M210.853 191.093C210.853 191.093 219.459 205.551 222.534 205.551C225.609 205.551 227.455 204.054 228.066 201.563C228.678 199.073 219.459 185.109 219.459 185.109L210.853 191.093Z" fill="#FFA286"/>
<path d="M212.554 171.387C211.948 171.459 211.336 171.624 210.786 171.902C210.236 172.179 209.716 172.529 209.295 172.977C208.858 173.404 208.508 173.913 208.256 174.459C208.745 174.093 209.182 173.718 209.655 173.399C210.112 173.059 210.611 172.797 211.105 172.54C211.603 172.287 212.128 172.092 212.668 171.927C213.213 171.768 213.768 171.639 214.369 171.552C213.788 171.346 213.161 171.315 212.554 171.387Z" fill="#CE6862"/>
<path d="M201.968 192.276C200.811 191.546 199.747 190.692 198.641 189.848C199.536 190.903 200.523 191.896 201.644 192.729C201.911 192.95 202.194 193.156 202.487 193.347C202.775 193.542 203.058 193.748 203.351 193.933C203.947 194.293 204.544 194.654 205.161 194.973C206.4 195.611 207.675 196.176 208.996 196.614C210.313 197.056 211.665 197.406 213.043 197.576C210.431 196.665 207.906 195.616 205.495 194.345C204.282 193.722 203.114 193.022 201.968 192.276Z" fill="#CE6862"/>
<path d="M255.656 195.662C255.939 196.243 256.196 196.835 256.386 197.447C256.581 198.06 256.71 198.672 256.818 199.31C256.926 199.938 257.023 200.565 256.885 201.121C256.756 201.666 256.386 202.171 255.933 202.505C255.481 202.84 254.931 202.973 254.432 202.773C253.933 202.582 253.502 202.145 253.126 201.661C252.746 201.157 252.406 200.648 252.18 200.087C251.99 199.634 251.866 199.156 251.795 198.662C251.661 198.646 251.527 198.631 251.399 198.605L251.748 198.307C251.759 198.425 251.779 198.548 251.795 198.667C252.658 198.754 253.553 198.59 254.283 198.116C254.699 197.844 255.044 197.468 255.28 197.041C255.522 196.614 255.64 196.135 255.656 195.662C255.558 196.125 255.378 196.562 255.116 196.933C254.849 197.303 254.494 197.597 254.103 197.797C253.311 198.209 252.376 198.255 251.527 198.039L251.162 197.946L251.178 198.337C251.198 199.012 251.337 199.686 251.573 200.324C251.805 200.972 252.19 201.548 252.576 202.078C252.977 202.613 253.476 203.153 254.196 203.426C254.921 203.709 255.789 203.493 256.334 203.03C256.89 202.577 257.322 201.965 257.455 201.234C257.579 200.509 257.419 199.835 257.26 199.207C256.967 197.936 256.417 196.712 255.656 195.662Z" fill="#AA577F"/>
<path d="M251.399 198.606C251.533 198.632 251.661 198.652 251.795 198.663C251.78 198.544 251.759 198.425 251.749 198.302L251.399 198.606Z" fill="#AA577F"/>
<path d="M242.447 201.275C241.959 201.687 241.362 201.919 240.761 202.037C240.154 202.181 239.522 202.078 238.905 201.975H238.894L238.833 201.97C238.709 201.96 238.462 201.877 238.277 201.774C238.082 201.666 237.892 201.543 237.717 201.389C237.367 201.085 237.049 200.725 236.766 200.334C236.478 199.943 236.241 199.521 236 199.084C235.753 198.636 235.501 198.193 235.234 197.756C234.699 196.892 234.133 196.048 233.532 195.23C232.925 194.417 232.308 193.614 231.64 192.848C232.683 194.581 233.727 196.315 234.699 198.07C234.946 198.507 235.177 198.95 235.398 199.397C235.629 199.85 235.887 200.318 236.19 200.745C236.493 201.178 236.833 201.589 237.259 201.939C237.465 202.119 237.702 202.268 237.948 202.402C238.216 202.531 238.447 202.639 238.828 202.67L238.756 202.665C239.455 202.767 240.18 202.84 240.884 202.654C241.583 202.49 242.247 202.15 242.761 201.666C243.275 201.183 243.681 200.606 243.974 199.989C244.267 199.372 244.493 198.728 244.591 198.06C244.37 198.692 244.077 199.3 243.722 199.85C243.367 200.38 242.951 200.884 242.447 201.275Z" fill="#CE6862"/>
<path d="M230.787 203.514C230.771 203.498 230.75 203.483 230.735 203.473C230.709 203.467 230.688 203.462 230.663 203.457L230.787 203.514Z" fill="#CE6862"/>
<path d="M233.979 203.328C233.449 203.524 232.889 203.642 232.329 203.642C231.794 203.678 231.259 203.586 230.735 203.472C230.75 203.488 230.771 203.503 230.786 203.514L230.663 203.457C230.688 203.462 230.709 203.467 230.735 203.472C230.015 202.922 229.321 202.315 228.632 201.713C227.927 201.09 227.238 200.447 226.565 199.794C225.886 199.14 225.228 198.466 224.585 197.777C223.932 197.098 223.321 196.377 222.693 195.657C223.172 196.48 223.696 197.283 224.272 198.039C224.843 198.801 225.465 199.531 226.112 200.231C226.76 200.931 227.439 201.605 228.154 202.243C228.858 202.891 229.598 203.488 230.375 204.069L230.436 204.116L230.498 204.126C231.11 204.234 231.737 204.321 232.365 204.249C232.987 204.203 233.604 204.028 234.164 203.766C234.725 203.498 235.239 203.153 235.676 202.732C236.108 202.31 236.498 201.841 236.776 201.311C236.02 202.232 235.054 202.948 233.979 203.328Z" fill="#CE6862"/>
<path d="M222.088 205.099C222.062 205.078 222.041 205.057 222.015 205.037L221.912 205.031L222.088 205.099Z" fill="#CE6862"/>
<path d="M225.778 204.589C225.197 204.877 224.539 204.964 223.897 205.062C223.568 205.073 223.238 205.088 222.909 205.088L222.02 205.036C222.046 205.057 222.066 205.078 222.092 205.098L221.917 205.031L222.02 205.036C221.398 204.543 220.776 203.987 220.19 203.421C219.583 202.824 218.976 202.217 218.4 201.584C217.824 200.951 217.254 200.308 216.704 199.644C216.421 199.32 216.153 198.981 215.876 198.651C215.608 198.312 215.346 197.972 215.063 197.638C215.47 198.404 215.917 199.145 216.395 199.876C216.873 200.601 217.403 201.296 217.943 201.98C218.503 202.649 219.074 203.308 219.696 203.92C220.318 204.537 220.951 205.129 221.675 205.669L221.758 205.731L221.85 205.736L222.909 205.777C223.264 205.762 223.619 205.731 223.974 205.7C224.673 205.577 225.388 205.428 226.02 205.052C226.652 204.702 227.203 204.193 227.557 203.57C227.907 202.953 228.108 202.253 228.077 201.563C227.964 202.243 227.701 202.881 227.295 203.4C226.889 203.925 226.359 204.321 225.778 204.589Z" fill="#CE6862"/>
<path d="M239.152 186.298C238.802 185.742 238.442 185.186 238.051 184.656C237.66 184.126 237.249 183.607 236.776 183.123C236.992 183.761 237.27 184.363 237.568 184.95C237.861 185.541 238.195 186.107 238.535 186.673C238.884 187.229 239.244 187.78 239.635 188.31C240.026 188.839 240.437 189.359 240.905 189.843C240.689 189.205 240.411 188.603 240.113 188.016C239.82 187.43 239.491 186.859 239.152 186.298Z" fill="#CE6862"/>
<path d="M183.273 169.185C181.623 169.468 180.091 170.24 178.754 171.212C178.06 171.675 177.479 172.267 176.872 172.822C176.569 173.1 176.322 173.435 176.044 173.738C175.777 174.052 175.499 174.356 175.252 174.685C174.785 175.359 174.306 176.023 173.88 176.717C173.494 177.438 173.093 178.148 172.733 178.873C173.232 178.225 173.695 177.561 174.168 176.913C174.656 176.27 175.191 175.668 175.679 175.035C176.229 174.453 176.759 173.851 177.335 173.306C177.936 172.786 178.497 172.22 179.165 171.788C180.43 170.852 181.849 170.101 183.381 169.73C184.147 169.565 184.934 169.427 185.731 169.452C186.528 169.442 187.325 169.555 188.101 169.797C186.651 169.046 184.908 168.902 183.273 169.185Z" fill="#CE6862"/>
<path d="M217.824 203.066L216.806 205.86H221.886L221.125 203.066H217.824Z" fill="#B1D1FA"/>
<path d="M222.138 203.066L221.125 205.86H226.2L225.439 203.066H222.138Z" fill="#B1D1FA"/>
<path d="M226.457 203.066L225.439 205.86H230.519L229.758 203.066H226.457Z" fill="#B1D1FA"/>
<path d="M230.771 203.066L229.758 205.86H234.832L234.072 203.066H230.771Z" fill="#B1D1FA"/>
<path d="M235.09 203.066L234.072 205.86H239.151L238.39 203.066H235.09Z" fill="#B1D1FA"/>
<path d="M214.344 206.719C214.344 207.897 215.3 208.849 216.472 208.849H273.975V204.584H216.472C215.295 204.589 214.344 205.541 214.344 206.719Z" fill="white"/>
<path d="M310.721 164.93H310.706L248.987 164.801C247.342 164.796 245.918 165.933 245.558 167.538L236.894 205.813L236.437 207.846L236.226 208.777L237.496 208.782L301.091 208.911C302.587 208.911 303.883 207.877 304.217 206.415C307.133 193.532 310.048 180.643 312.968 167.76C313.112 167.116 312.978 166.489 312.649 165.984C312.233 165.362 311.539 164.94 310.721 164.93Z" fill="white"/>
<path d="M310.721 164.93H310.706L247.887 164.796C246.884 164.796 246.021 165.485 245.799 166.463L236.894 205.813L236.884 205.87H238.144L246.828 167.518C247.049 166.54 247.918 165.851 248.915 165.851L311.734 165.984H312.639C312.233 165.362 311.539 164.94 310.721 164.93Z" fill="#B1D1FA"/>
<path d="M270.864 188.963H283.307C283.461 188.284 283.61 187.61 283.764 186.931H271.322C271.168 187.61 271.019 188.284 270.864 188.963Z" fill="#B1D1FA"/>
<path d="M251.409 115.258C251.46 116.462 251.301 117.661 250.936 118.793C250.237 121.077 248.679 122.991 246.853 124.499C245.008 126.001 242.889 127.169 240.673 128.064C238.457 128.975 236.138 129.577 233.758 129.778C229.023 130.231 224.118 129.346 219.927 127.051C218.909 126.444 217.896 125.8 217.012 124.993C216.102 124.226 215.295 123.321 214.487 122.415C212.873 120.604 211.367 118.695 209.85 116.791C211.187 118.824 212.616 120.794 214.117 122.724C214.889 123.67 215.66 124.622 216.575 125.466C217.459 126.341 218.493 127.035 219.536 127.704C221.67 128.97 224.03 129.824 226.447 130.344C228.873 130.833 231.372 130.956 233.84 130.74C236.308 130.513 238.745 129.881 241.013 128.908C243.28 127.936 245.46 126.711 247.332 125.07C249.193 123.449 250.756 121.345 251.378 118.916C252.015 116.498 251.686 113.92 250.71 111.698C251.105 112.86 251.357 114.059 251.409 115.258Z" fill="#0C292B"/>
<path d="M245.149 116.835L244.856 117.239L250.211 121.122L250.503 120.718L245.149 116.835Z" fill="#0C292B"/>
<path d="M242.696 118.927L242.258 119.166L245.545 125.19L245.983 124.95L242.696 118.927Z" fill="#0C292B"/>
<path d="M238.254 120.96L237.777 121.106L240.115 128.767L240.592 128.622L238.254 120.96Z" fill="#0C292B"/>
<path d="M233.782 124.586L233.738 130.374L234.237 130.378L234.281 124.59L233.782 124.586Z" fill="#0C292B"/>
<path d="M227.303 121.993L225.958 129.786L226.449 129.871L227.794 122.078L227.303 121.993Z" fill="#0C292B"/>
<path d="M222.357 116.921L217.43 125.83L217.867 126.072L222.794 117.163L222.357 116.921Z" fill="#0C292B"/>
<path d="M230.035 102.832C223.161 102.128 213.588 104.371 212.349 109.315C210.775 115.572 222.369 126.871 233.773 125.77C240.102 125.157 247.506 120.624 247.727 115.299C247.984 108.955 237.958 103.645 230.035 102.832Z" fill="#FFA286"/>
<path d="M224.246 84.5515C222.534 91.3998 220.822 98.2532 219.11 105.101C219.665 106.527 221.588 110.915 226.405 113.627C233.583 117.661 240.961 114.466 241.794 114.085C242.082 112.583 242.365 111.075 242.653 109.573C243.264 106.367 243.871 103.167 244.478 99.9614C239.105 95.8709 233.742 91.7857 228.369 87.6952C226.992 86.6456 225.619 85.6011 224.246 84.5515Z" fill="#FFA286"/>
<path d="M224.601 87.8907C220.477 96.9359 221.367 105.703 225.789 108.929C228.632 111.003 233.11 110.915 234.144 110.9C238.185 110.823 241.213 109.377 242.709 108.528C243.008 107.314 243.29 106.064 243.563 104.772C243.907 103.126 244.211 101.52 244.473 99.9665C239.1 95.876 233.737 91.7907 228.365 87.7003C227.146 87.7003 225.897 87.7672 224.601 87.8907Z" fill="#CE6862"/>
<path d="M248.699 57.5546C244.2 54.2566 238.848 55.5274 237.105 56.0728C235.984 56.4176 231.717 56.7211 229.655 61.393C227.238 66.852 222.416 77.7701 223.269 90.2884C223.763 97.4608 224.261 102.153 228.112 105.487C231.254 108.209 235.953 109.387 239.974 109.043C241.475 108.914 242.997 108.785 244.606 107.823C248.884 105.266 249.568 99.3491 249.846 96.9463C250.494 91.3329 248.658 89.4754 249.794 83.3475C250.154 81.4078 250.658 79.8591 251.023 78.8609C252.129 74.93 253.321 70.6955 253.321 70.6955C254.365 65.5657 252.576 60.3948 248.699 57.5546Z" fill="#FFA286"/>
<path d="M259.62 57.6524C259.759 57.3025 261.188 53.5877 259.481 51.4885C257.661 49.2503 252.483 49.0857 248.221 53.0372L246.596 52.5793C246.776 52.3992 247.481 51.6428 247.285 50.9431C247.054 50.125 245.748 49.9037 245.126 49.7957C241.702 49.2143 237.198 53.49 235.845 54.8329C234.647 53.2378 232.586 52.6667 230.961 53.3613C228.992 54.2051 227.974 56.7726 229.007 59.021C229.007 59.021 224.945 57.8788 225.783 64.2486C225.783 64.2486 221.871 71.9149 223.747 77.7084C223.747 77.7084 225.85 82.6889 228.035 78.0428C230.221 73.3967 229.28 70.5 232.761 70.6029C236.236 70.7058 238.087 70.3508 238.776 67.9119C238.946 67.3151 239.043 67.0836 239.162 67.0733C239.542 67.0424 239.367 69.7488 240.786 71.7451C242.041 73.5151 244.756 75.0226 247.208 74.1994C248.71 73.6951 249.568 72.5015 249.918 71.9252C251.239 73.16 253.07 73.618 254.638 73.0623C256.72 72.3265 258.052 69.9186 257.522 67.4077C259.584 68.5397 261.846 67.6392 262.391 66.1934C262.782 65.1593 262.319 63.7855 261.239 62.8439C262.371 62.4323 263.224 61.5679 263.311 60.6315C263.43 59.2526 261.898 57.5855 259.62 57.6524Z" fill="#C94F12"/>
<path d="M250.422 67.3511C250.411 67.6444 250.427 67.9325 250.422 68.2206C250.401 68.5087 250.401 68.7969 250.375 69.0799C250.334 69.3628 250.329 69.651 250.267 69.9288C250.242 70.0677 250.226 70.2118 250.19 70.3456L250.082 70.7572C249.928 71.3026 249.712 71.8274 249.424 72.311C249.131 72.7947 248.787 73.2578 248.339 73.6282C248.859 73.3555 249.291 72.9285 249.63 72.4448C249.974 71.9612 250.216 71.4106 250.386 70.8395C250.545 70.2684 250.617 69.6767 250.622 69.0901C250.627 68.7969 250.591 68.5036 250.576 68.2103C250.53 67.9222 250.483 67.6341 250.422 67.3511Z" fill="#790F04"/>
<path d="M257.337 66.4969L257.126 66.1882C257.049 66.0905 256.956 66.0081 256.869 65.9207C256.787 65.8281 256.684 65.756 256.581 65.6891C256.478 65.6222 256.386 65.5348 256.273 65.4936L255.938 65.3444C255.831 65.2878 255.707 65.2724 255.594 65.2364C255.476 65.2055 255.363 65.1798 255.244 65.1592C255.352 65.2158 255.455 65.2672 255.563 65.3187C255.666 65.3753 255.779 65.4062 255.872 65.4833L256.165 65.6686C256.268 65.7252 256.34 65.8126 256.432 65.8847C256.777 66.1779 257.054 66.5432 257.224 66.96C257.404 67.3716 257.502 67.8192 257.548 68.2823C257.589 68.7402 257.579 69.2136 257.527 69.687C257.707 69.2445 257.784 68.7608 257.789 68.272C257.795 67.7884 257.707 67.2944 257.512 66.8365C257.45 66.7182 257.404 66.5998 257.337 66.4969Z" fill="#790F04"/>
<path d="M246.411 50.125C246.74 50.2279 247.018 50.4697 247.1 50.7784C247.193 51.0872 247.136 51.4216 247.033 51.7303C246.817 52.358 246.442 52.9343 246.046 53.4797C245.65 54.0302 245.213 54.555 244.771 55.0798L243.419 56.6388C244.488 55.7641 245.476 54.7866 246.298 53.6598C246.699 53.0938 247.08 52.4918 247.265 51.7972C247.357 51.4576 247.388 51.0666 247.244 50.7218C247.095 50.3823 246.751 50.1559 246.411 50.125Z" fill="#790F04"/>
<path d="M252.545 56.1552C252.329 55.8722 252.067 55.6355 251.779 55.4297C251.198 55.0232 250.427 54.8483 249.733 55.0129C249.039 55.1621 248.417 55.5274 247.887 55.9596C246.823 56.8395 245.985 57.9354 245.311 59.1136C245.697 58.558 246.113 58.0229 246.571 57.5238C247.018 57.0196 247.501 56.5462 248.036 56.15C248.571 55.759 249.157 55.4143 249.789 55.2908C250.422 55.1518 251.08 55.3114 251.604 55.6869C251.866 55.8722 252.118 56.0883 252.314 56.3404C252.514 56.5874 252.679 56.8703 252.751 57.1739C252.823 57.4775 252.807 57.8016 252.71 58.1052C252.612 58.4088 252.458 58.6969 252.268 58.9696C251.882 59.5047 251.383 59.9677 250.854 60.3742C250.324 60.791 249.753 61.1563 249.162 61.4907C250.391 60.9299 251.584 60.1993 252.458 59.1136C252.669 58.8409 252.854 58.5322 252.962 58.1875C253.075 57.8479 253.1 57.4672 253.023 57.1122C252.946 56.7571 252.761 56.433 252.545 56.1552Z" fill="#790F04"/>
<path d="M238.822 65.0614C238.452 64.6035 237.969 64.2639 237.46 64.0221C237.907 64.372 238.318 64.7579 238.627 65.2055C238.935 65.6531 239.105 66.1779 239.09 66.7079C239.084 67.243 238.91 67.7678 238.668 68.2617C238.416 68.7505 238.108 69.2239 237.743 69.6561C238.19 69.3062 238.581 68.874 238.879 68.3749C239.182 67.881 239.388 67.3099 239.403 66.7079C239.403 66.4095 239.357 66.1059 239.259 65.8229C239.162 65.5502 239.007 65.2878 238.822 65.0614Z" fill="#790F04"/>
<path d="M218.709 76.7257C216.827 77.2145 215.043 78.9896 215.048 80.7544C215.053 83.3167 218.832 86.198 224.806 86.5633L226.148 81.7937C224.94 77.9914 221.49 76.0053 218.709 76.7257Z" fill="#FFA286"/>
<path d="M223.671 82.4369C223.563 82.4472 223.46 82.4627 223.357 82.4833C223.377 82.571 223.403 82.6587 223.418 82.7464L223.671 82.4369Z" fill="#CE6862"/>
<path d="M223.357 80.9242C223.079 80.3788 222.699 79.8797 222.231 79.463C221.763 79.0565 221.213 78.7221 220.611 78.5574C220.01 78.4031 219.367 78.4133 218.801 78.6449C219.393 78.7889 219.927 78.9176 220.436 79.1131C220.945 79.2932 221.434 79.5504 221.84 79.9106C222.251 80.2656 222.585 80.7081 222.848 81.1918C223.069 81.5931 223.238 82.0356 223.352 82.4832C223.454 82.4626 223.557 82.442 223.665 82.4369L223.413 82.7456C223.398 82.6581 223.372 82.5707 223.352 82.4832C223.182 82.5141 223.012 82.5604 222.842 82.6273C222.709 82.6839 222.575 82.7507 222.452 82.8588C222.333 82.9617 222.226 83.1212 222.2 83.2961C222.174 83.4711 222.215 83.6306 222.282 83.7592C222.349 83.893 222.431 84.001 222.519 84.1039C222.699 84.3046 222.909 84.4641 223.125 84.6133C222.961 84.4075 222.807 84.2017 222.683 83.9856C222.56 83.7746 222.477 83.5277 222.534 83.3682C222.585 83.2138 222.776 83.1161 222.992 83.0543C223.208 82.9926 223.459 82.972 223.681 82.9668L223.984 82.9566L223.932 82.653C223.835 82.0459 223.634 81.4696 223.357 80.9242Z" fill="#CE6862"/>
<path d="M220.22 79.5967C219.804 79.7356 219.428 80.0135 219.166 80.3839C218.904 80.7492 218.755 81.2123 218.796 81.6599C218.832 82.1024 219.012 82.5192 219.315 82.8073C219.264 82.3957 219.254 82.0252 219.321 81.6856C219.382 81.3461 219.521 81.0476 219.711 80.7749C219.907 80.5074 220.153 80.2707 220.447 80.0752C220.74 79.8797 221.079 79.7356 221.475 79.6224C221.089 79.4526 220.637 79.4578 220.22 79.5967Z" fill="#CE6862"/>
<path d="M152.491 182.501C153.108 190.146 159.293 196.074 166.671 197.463C167.7 197.669 168.738 197.808 169.777 197.895C161.16 196.562 154.136 191.402 152.491 182.501Z" fill="#CE6862"/>
<path d="M124.3 48.9314L122.105 48.1339C120.434 47.5267 118.547 48.3139 117.806 49.9295L68.8281 156.44C68.1237 157.974 68.5608 159.764 69.8976 160.798L77.7281 166.854C78.3708 167.348 79.1369 167.61 79.9184 167.61C80.2423 167.61 80.5765 167.564 80.9004 167.477C82.0058 167.168 82.8799 166.376 83.2912 165.3L126.336 53.4077C126.67 52.5381 126.645 51.5914 126.259 50.7425C125.868 49.8935 125.174 49.2504 124.3 48.9314ZM123.452 52.2912L80.412 164.189C80.3297 164.4 80.1652 164.477 80.0675 164.503C79.9749 164.528 79.7898 164.554 79.615 164.415L71.7845 158.359C71.5943 158.21 71.5326 157.953 71.6302 157.737L120.603 51.221C120.68 51.0563 120.876 50.974 121.045 51.0357L123.241 51.8333C123.359 51.8744 123.416 51.9567 123.441 52.0185C123.472 52.0802 123.498 52.178 123.452 52.2912Z" fill="#FF6343"/>
<path d="M118.48 47.007C117.549 48.0412 117.097 49.4304 117.241 50.8144L117.858 56.7932C118.028 58.4653 119.025 59.9163 120.521 60.6778C121.231 61.0379 121.992 61.218 122.758 61.218C123.611 61.218 124.465 60.9916 125.231 60.5491L133.421 55.7847L143.581 49.8729V45.3811H122.136C120.747 45.3811 119.411 45.9728 118.48 47.007ZM132.979 52.4712L123.678 57.8788C123.128 58.1978 122.49 58.2184 121.92 57.9251C121.354 57.637 120.989 57.107 120.927 56.4742L120.305 50.5006C120.254 49.9758 120.418 49.4664 120.773 49.0754C121.123 48.6843 121.611 48.4682 122.136 48.4682H139.853L132.979 52.4712Z" fill="#CF321C"/>
<path d="M75.6305 155.792L69.4092 156.728C68.4323 156.878 67.5531 157.433 67.003 158.256C66.4528 159.08 66.2729 160.104 66.5145 161.066L101.981 304.046L104.999 303.408L79.6254 158.673C79.2912 156.77 77.538 155.504 75.6305 155.792ZM69.5121 160.32C69.4709 160.155 69.5326 160.032 69.5738 159.97C69.6149 159.908 69.7074 159.805 69.872 159.779L76.0932 158.843C76.1138 158.838 76.1395 158.838 76.16 158.838C76.3708 158.838 76.5508 158.987 76.5868 159.198L94.3096 260.286L69.5121 160.32Z" fill="#FF6343"/>
<path d="M105.204 303.67H100.988C100.022 303.67 99.2402 304.452 99.2402 305.419V318.385C99.2402 319.352 100.022 320.135 100.988 320.135H105.204C106.171 320.135 106.953 319.352 106.953 318.385V305.419C106.947 304.452 106.166 303.67 105.204 303.67Z" fill="#C74E10"/>
<path d="M124.3 48.9314L122.105 48.1339C120.434 47.5267 118.547 48.3139 117.806 49.9295L68.8281 156.44C68.1237 157.974 68.5608 159.764 69.8976 160.798L70.1443 160.989C69.4502 159.97 69.3166 158.642 69.8564 157.469L118.829 50.9534C119.57 49.3378 121.462 48.5506 123.128 49.1578L125.323 49.9553C125.565 50.0427 125.791 50.1611 126.007 50.2948C125.606 49.6723 125.015 49.1886 124.3 48.9314Z" fill="#CF321C"/>
<path d="M124.274 52.8623L123.364 52.533L80.412 164.189C80.3297 164.4 80.1652 164.477 80.0675 164.503C79.9749 164.528 79.7898 164.554 79.615 164.415L72.6226 159.008C72.6277 159.157 72.6945 159.296 72.8179 159.394L80.6485 165.449C80.8284 165.588 81.0084 165.563 81.1009 165.537C81.1935 165.511 81.3631 165.434 81.4454 165.223L124.49 53.3305C124.537 53.2173 124.511 53.1195 124.48 53.0578C124.444 52.9857 124.387 52.9034 124.274 52.8623Z" fill="#CF321C"/>
<path d="M68.9413 158.256C69.4657 157.433 70.3037 156.878 71.2344 156.728L76.6073 155.884C76.1651 155.756 75.6921 155.72 75.2036 155.797L69.2703 156.733C68.3346 156.883 67.5016 157.438 66.9772 158.262C66.4528 159.085 66.2831 160.109 66.5093 161.071L100.33 304.051L102.191 303.639L68.4682 161.071C68.2471 160.098 68.4168 159.08 68.9413 158.256Z" fill="#CF321C"/>
<path d="M77.6664 158.843C77.6458 158.843 77.6252 158.843 77.6047 158.848L76.0776 159.09C76.0931 159.126 76.1136 159.162 76.1188 159.208L88.2888 232.023L94.9779 260.296L78.0777 159.208C78.0366 158.992 77.8669 158.843 77.6664 158.843Z" fill="#CF321C"/>
<path d="M133.01 48.4682H139.853L132.979 52.4712C133.046 53.5877 133.18 54.7042 133.421 55.7847L143.581 49.8729V45.3811H133.329C133.205 46.3072 133.087 47.3517 133.01 48.4682Z" fill="#FF6343"/>
<path d="M178.672 61.8046C177.402 60.5852 174.888 58.6249 166.497 56.7623C160.61 55.4554 159.427 55.8876 156.846 54.2412C155.165 53.171 154.003 51.9361 152.229 50.0427C151.01 48.7409 149.972 47.501 149.108 46.3896C147.864 44.7791 145.817 44.0177 143.828 44.4138C143.56 44.4704 143.298 44.5219 143.031 44.5785C143.02 44.5785 143.005 44.5836 142.995 44.5836C142.995 44.5836 142.948 44.5888 142.861 44.6042C140.249 45.093 138.414 47.4649 138.537 50.1199C138.732 54.1897 138.959 61.0534 138.378 62.2214C137.534 63.9038 127.462 76.0825 129.143 87.0058L136.691 83.6871L180.77 64.3206C180.368 63.7135 179.685 62.7719 178.672 61.8046Z" fill="#C74E10"/>
<g opacity="0.5">
<path d="M142.995 44.5836C142.995 44.5836 142.948 44.5888 142.861 44.6042C140.249 45.093 138.414 47.4649 138.537 50.1199C138.732 54.1897 138.959 61.0534 138.378 62.2214C137.534 63.9039 127.462 76.0825 129.143 87.0058L136.691 83.6871C136.835 78.7323 137.344 69.3475 139.211 66.7337C141.781 63.1321 141.267 57.9869 140.753 53.3562C140.486 50.9431 141.756 47.4083 143.031 44.5785C143.02 44.5785 143.005 44.5836 142.995 44.5836Z" fill="#E86931"/>
</g>
<path d="M159.586 68.6065C157.195 69.5121 154.835 70.4794 152.65 71.4518C150.794 72.2751 148.779 73.2321 146.738 74.2611C137.74 78.7786 128.136 84.7007 129.01 86.9749C130.084 89.7636 147.051 87.1447 161.463 79.8694C171.448 74.8322 181.931 66.6925 180.769 64.3257C179.731 62.2008 169.391 64.8917 159.586 68.6065Z" fill="#81261A"/>
<path d="M152.656 71.4467C150.8 72.2699 148.784 73.227 146.743 74.256C147.931 76.3398 150.321 77.765 153.072 77.765C157.016 77.765 160.209 74.8477 160.209 71.2563C160.209 70.3096 159.993 69.4144 159.592 68.6066C157.196 69.5121 154.836 70.4794 152.656 71.4467Z" fill="#F9AD3D"/>
<path d="M106.947 312.159H99.2351V315.247H106.947V312.159Z" fill="#81261A"/>
<path d="M133.426 323.453L108.104 312.931H98.3355L70.489 323.983C69.7435 324.282 69.1573 324.842 68.8231 325.537C68.6226 325.949 68.5146 326.412 68.5146 326.89V329.396H135.354V326.34C135.354 326.062 135.318 325.794 135.246 325.537C135.005 324.611 134.342 323.834 133.426 323.453Z" fill="#C74E10"/>
<path d="M68.8283 325.537C68.6278 325.949 68.5198 326.412 68.5198 326.89V329.396H135.36V326.34C135.36 326.062 135.324 325.794 135.252 325.537H68.8283Z" fill="#81261A"/>
<path d="M171.252 194.89C167.515 192.863 167.242 187.085 167.139 184.898C167.103 184.152 167.098 182.84 167.453 182.475C167.905 182.012 168.944 181.724 170.456 181.827C171.427 181.893 172.594 182.12 173.926 182.567L175.016 179.882C173.283 179.3 171.659 178.986 170.204 178.945C168.008 178.884 166.219 179.429 165.103 180.571C164.214 181.487 163.89 182.778 163.998 185.022C164.121 187.656 164.45 194.654 169.777 197.422C169.875 197.468 169.941 197.504 171.885 198.173C172.62 198.425 173.623 198.765 174.99 199.233L176.091 196.552C173.376 195.631 172.157 195.209 171.607 195.014C171.422 194.952 171.319 194.911 171.252 194.89ZM171.278 194.901C171.319 194.921 171.335 194.926 171.34 194.931C171.314 194.921 171.299 194.911 171.278 194.901Z" fill="#C6E2D7"/>
<path d="M170.461 181.821C171.432 181.888 172.6 182.115 173.931 182.562L175.021 179.876C173.289 179.295 171.664 178.981 170.209 178.94L170.461 181.821Z" fill="#89BCBA"/>
<path d="M171.89 198.173C172.625 198.425 173.628 198.765 174.995 199.233L176.096 196.552C173.381 195.631 172.162 195.209 171.612 195.014L171.89 198.173Z" fill="#89BCBA"/>
<path d="M172.152 175.606L172.178 175.899L174.563 201.677C174.599 202.057 174.707 202.418 174.882 202.737C175.288 203.493 176.039 204.033 176.934 204.152C179.479 204.486 182.826 204.692 186.497 204.692C190.065 204.692 193.335 204.496 195.855 204.177C197.13 204.018 198.122 202.984 198.24 201.702L200.297 179.444C200.312 179.316 200.323 179.208 200.328 179.125L200.333 179.053C200.338 178.976 200.343 178.935 200.343 178.935L200.616 176.002L200.662 175.488C199.366 174.896 193.52 174.448 186.497 174.448C179.052 174.459 172.918 174.963 172.152 175.606Z" fill="#C6E2D7"/>
<path d="M200.667 175.498C199.372 174.906 193.526 174.459 186.502 174.459C179.052 174.459 172.924 174.963 172.152 175.606C172.101 175.647 172.07 175.699 172.07 175.745C172.07 175.796 172.106 175.853 172.178 175.904C173.057 176.537 179.129 177.031 186.497 177.031C193.438 177.031 199.233 176.594 200.611 176.018C200.816 175.93 200.924 175.843 200.924 175.75C200.929 175.657 200.842 175.575 200.667 175.498Z" fill="#89BCBA"/>
<path d="M200.688 175.426C199.454 175.982 193.572 176.398 186.502 176.398C179.428 176.398 173.551 175.982 172.317 175.426C172.163 175.498 172.075 175.57 172.075 175.642C172.075 176.301 178.533 176.831 186.507 176.831C194.477 176.831 200.935 176.301 200.935 175.642C200.929 175.565 200.847 175.493 200.688 175.426Z" fill="#C6E2D7"/>
<path d="M196.934 190.254C195.716 193.033 193.793 197.437 189.135 200.401C183.181 204.193 176.723 203.112 174.882 202.737C175.294 203.493 176.044 204.038 176.934 204.152C179.479 204.486 182.826 204.692 186.497 204.692C190.065 204.692 193.335 204.496 195.855 204.177C197.13 204.018 198.122 202.984 198.24 201.702L200.297 179.444C199.952 179.47 199.613 179.496 199.269 179.516C199.222 181.971 198.837 185.907 196.934 190.254Z" fill="#89BCBA"/>
<path d="M361.129 183.041C347.339 180.113 328.311 178.096 310.999 183.252L312.896 186.869L313.868 187.296L313.117 187.61C313.117 187.61 314.989 196.917 314.922 198.548L316.706 199.711L315.236 199.974C315.236 199.974 316.12 203.668 315.883 204.517C315.883 204.517 321.061 205.206 324.84 209.744C324.84 209.744 351.622 200.509 376.893 207.63C376.893 207.63 378.142 197.854 378.687 196.526L372.029 193.578L378.795 194.942C378.795 194.942 378.913 191.134 380.672 188.613C380.672 188.613 372.769 185.5 361.139 183.031L361.129 183.041Z" fill="#EEFBF6"/>
<path d="M326.023 203.616L326.557 194.355C328.83 192.431 335.262 192.009 335.262 192.009C331.37 191.613 325.94 193.357 325.94 193.357L326.089 191.119C324.48 188.762 310.994 183.252 310.994 183.252L312.891 186.869L313.863 187.296L313.112 187.61C313.112 187.61 314.984 196.917 314.917 198.548L316.701 199.711L315.231 199.974C315.231 199.974 316.115 203.668 315.878 204.517C315.878 204.517 321.056 205.206 324.835 209.744C325.951 208.036 325.74 204.409 325.74 204.409C334.223 200.483 344.321 200.936 344.321 200.936C333.647 199.629 326.023 203.616 326.023 203.616Z" fill="#DCEAE4"/>
<path d="M310.994 183.252L325.791 188.51C325.791 188.51 353.283 182.495 361.129 183.036C347.339 180.113 328.311 178.096 310.994 183.252Z" fill="#DCEAE4"/>
<path d="M353.18 192.812L372.018 193.583C363.915 190.537 353.18 192.812 353.18 192.812Z" fill="#DCEAE4"/>
<path d="M317.806 166.499L332.861 174.263L333.102 175.416L332.105 185.871C357.807 180.515 365.957 184.147 365.957 184.147L366.224 180.504L363.55 179.197L366.265 179.383L367.011 173.399L364.455 172.406L367.304 172.596L368.044 168.182C344.203 161.94 317.806 166.499 317.806 166.499Z" fill="#EEFBF6"/>
<path d="M317.806 166.499L317.452 171.768L319.74 173.558L317.354 173.213L317.102 176.969L319.267 177.89L316.603 178.348L316.398 181.425L332.105 185.871C332.105 185.871 333.858 175.647 332.866 174.263L317.806 166.499Z" fill="#DCEAE4"/>
<path d="M333.097 175.416L348.774 172.653L332.861 174.263L333.097 175.416Z" fill="#DCEAE4"/>
<path d="M332.799 178.518L337.195 177.999L333.102 177.957L332.799 178.518Z" fill="#DCEAE4"/>
<path d="M332.29 182.748L336.141 181.95L332.691 181.883L332.29 182.748Z" fill="#DCEAE4"/>
<path d="M361.556 160.006L340.414 153.224C340.414 153.224 330.46 154.752 325.575 155.9C324.197 156.224 323.226 156.512 322.989 156.733C321.92 157.732 321.04 164.832 321.596 166.478C322.156 168.125 353.201 170.888 353.201 170.888L362.09 163.993L361.756 161.503L361.556 160.006Z" fill="#FF6343"/>
<path d="M361.617 160.459L352.692 166.859L323.961 158.539C323.961 158.539 323.236 158.267 322.778 160.068C322.526 161.061 322.357 162.676 322.434 165.305C322.434 165.305 347.751 169.421 352.928 169.951L362.121 163.566L361.73 161.127L361.617 160.459Z" fill="#EEFBF6"/>
<path d="M352.692 166.859L323.961 158.539C323.961 158.539 323.236 158.267 322.778 160.068C323.169 159.985 324.326 159.887 326.866 160.623C330.146 161.575 352.856 167.924 352.856 167.924L361.725 161.127L361.617 160.459L352.692 166.859Z" fill="#DCEAE4"/>
<path d="M354.491 148.429C349.607 147.282 339.653 145.754 339.653 145.754L318.511 152.535L318.31 154.032L317.976 156.522L326.866 163.417C326.866 163.417 357.911 160.654 358.471 159.008C359.026 157.366 358.147 150.261 357.078 149.263C356.836 149.041 355.864 148.748 354.491 148.429Z" fill="#5CA0A2"/>
<path d="M356.101 151.069L327.37 159.388L318.444 152.988L318.336 153.662L317.945 156.101L327.138 162.486C332.321 161.956 357.633 157.84 357.633 157.84C357.71 155.205 357.54 153.59 357.288 152.602C356.825 150.796 356.101 151.069 356.101 151.069Z" fill="#EEFBF6"/>
<path d="M356.101 151.069L327.37 159.388L318.444 152.988L318.336 153.662L327.205 160.458C327.205 160.458 349.915 154.109 353.196 153.157C355.736 152.422 356.887 152.519 357.283 152.602C356.826 150.796 356.101 151.069 356.101 151.069Z" fill="#DCEAE4"/>
<path d="M160.121 273.653H112.562C111.127 273.653 110.032 274.929 110.238 276.344L117.745 327.343C117.755 327.41 117.765 327.482 117.786 327.549C118.038 328.609 118.984 329.35 120.069 329.35H152.609C153.154 329.35 153.658 329.164 154.064 328.845C154.471 328.526 154.769 328.074 154.897 327.549C154.913 327.482 154.928 327.415 154.938 327.343L162.445 276.344C162.656 274.924 161.556 273.653 160.121 273.653ZM117.534 319.749L112.356 282.029H115.025L119.518 319.749H117.534ZM120.963 319.749L116.773 282.029H119.513L122.788 319.749H120.963ZM124.233 319.749L121.189 282.029H123.74L126.29 319.749H124.233ZM127.663 319.749L125.529 282.029H128.043L129.791 319.749H127.663ZM131.241 319.749L129.796 282.029H132.537L133.298 319.749H131.241ZM136.722 319.749H134.588L134.208 282.029H136.722V319.749ZM140.074 319.749H138.018L138.779 282.029H141.061L140.074 319.749ZM141.447 319.749L143.046 282.029H145.406L143.504 319.749H141.447ZM144.948 319.749L147.308 282.029H150.203L146.851 319.749H144.948ZM148.218 319.749L151.874 282.029H154.543L150.203 319.749H148.218ZM153.627 319.749H151.874L156.064 282.029H158.728L153.627 319.749Z" fill="#F5B31E"/>
<path d="M164.096 273.154C164.096 273.817 163.828 274.414 163.391 274.852C162.959 275.284 162.358 275.557 161.694 275.557H110.989C109.662 275.557 108.593 274.481 108.593 273.159C108.593 272.819 108.665 272.495 108.788 272.207C108.906 271.924 109.081 271.672 109.292 271.461C109.724 271.029 110.325 270.756 110.989 270.756H161.7C162.687 270.756 163.53 271.353 163.9 272.202C164.029 272.495 164.096 272.814 164.096 273.154Z" fill="#BE6D02"/>
<path opacity="0.5" d="M163.9 272.202H108.783C108.901 271.919 109.076 271.667 109.287 271.456C109.719 271.024 110.32 270.751 110.984 270.751H161.694C162.687 270.756 163.53 271.348 163.9 272.202Z" fill="#F4EFEF"/>
<path opacity="0.5" d="M132.424 319.749H131.241L129.797 282.029H131.396L131.216 275.551H122.079L122.588 282.029H123.745L126.295 319.749H125.544L126.295 329.35H132.691L132.424 319.749ZM127.663 319.749L125.529 282.029H128.043L129.791 319.749H127.663Z" fill="#F4EFEF"/>
<path d="M286.495 327.153C279.312 324.92 267.132 312.134 267.132 312.134C263.702 311.28 262.453 314.315 262.453 314.315C257.435 313.971 254.036 308.367 251.733 306.978C251.311 306.726 250.926 306.613 250.571 306.7C248.293 307.266 245.583 319.1 245.583 319.1C245.738 322.553 250.545 325.923 267.965 331.902C285.384 337.88 289.672 331.444 289.672 331.444C290.017 328.413 286.495 327.153 286.495 327.153Z" fill="#C6E2D7"/>
<path d="M289.672 331.439C281.482 338.626 261.034 329.422 253.625 326.247C246.216 323.078 245.584 319.095 245.584 319.095C244.812 318.684 244.699 321.112 244.699 321.112C244.591 323.489 252.154 326.931 252.154 326.931C252.154 326.931 267.173 334.767 276.839 335.966C286.505 337.165 290.366 333.327 290.536 332.38C290.705 331.433 289.672 331.439 289.672 331.439Z" fill="#89BCBA"/>
<path d="M259.543 330.446C247.753 325.599 244.694 321.112 244.694 321.112C244.694 321.112 244.308 323.412 244.319 324.287C244.329 325.161 249.563 328.382 252.823 329.674C256.077 330.965 259.537 332.895 259.537 332.895C264.741 336.188 271.255 337.546 271.255 337.546C286.541 340.643 290.227 335.426 290.675 334.402C291.122 333.378 290.536 332.38 290.536 332.38C283.122 338.755 271.332 335.292 259.543 330.446Z" fill="white"/>
<path d="M264.031 313.935C264.951 312.942 266.545 312.839 267.764 312.782C266.525 312.731 264.864 312.767 263.882 313.775C263.527 314.14 263.455 314.706 263.342 315.2C263.121 316.188 263.08 317.269 263.414 318.215C263.728 319.172 264.304 319.97 264.926 320.685C265.347 321.179 265.954 321.585 266.036 322.321C266.262 324.724 261.969 327.847 260.309 329.046C262.17 327.924 266.586 324.94 266.345 322.265C266.262 321.441 265.63 320.963 265.157 320.433C264.555 319.754 264.005 318.992 263.697 318.092C263.368 317.197 263.404 316.204 263.589 315.252C263.687 314.794 263.717 314.295 264.031 313.935Z" fill="#89BCBA"/>
<path d="M247.378 317.948C246.766 317.33 246.2 316.662 245.686 315.946C249.121 321.416 256.746 325.455 262.468 327.657C259.378 326.206 256.345 324.595 253.45 322.738C251.301 321.349 249.203 319.816 247.378 317.948Z" fill="#89BCBA"/>
<path d="M482.952 278.608C482.397 277.831 467.682 277.352 460.499 277.152V277.095C460.185 277.105 459.825 277.116 459.445 277.126C459.064 277.116 458.705 277.105 458.391 277.095V277.152C451.208 277.352 436.493 277.831 435.938 278.608C435.753 278.865 435.64 279.143 435.64 279.143C435.511 279.451 435.444 279.791 435.444 280.146V305.136C435.444 316.512 444.658 325.738 456.031 325.738H458.396H460.509H462.874C474.242 325.738 483.461 316.517 483.461 305.136V280.146C483.461 279.791 483.394 279.451 483.266 279.143C483.25 279.143 483.132 278.865 482.952 278.608Z" fill="#EEFBF6"/>
<path d="M462.982 277.98C462.72 277.98 462.458 277.975 462.19 277.975C461.394 277.97 460.586 277.97 459.764 277.97C459.301 277.97 458.843 277.97 458.386 277.975C457.98 277.975 457.579 277.98 457.177 277.98C456.91 277.98 456.643 277.98 456.386 277.985C445.568 278.047 437.275 278.433 437.275 278.891C437.275 279.354 445.753 279.74 456.746 279.796C457.008 279.801 457.275 279.801 457.543 279.801C457.82 279.807 458.103 279.807 458.386 279.807C458.838 279.812 459.301 279.812 459.764 279.812C460.519 279.812 461.275 279.812 462.011 279.807C462.278 279.807 462.54 279.807 462.802 279.801C473.785 279.74 482.253 279.354 482.253 278.891C482.253 278.428 473.877 278.042 462.982 277.98Z" fill="#003C51"/>
<path d="M470.134 196.233L470.036 197.231L468.556 212.497L468.458 213.464L467.44 223.966L467.383 224.542L467.26 225.828L466.108 237.662L462.196 277.98L462.016 279.807C462.283 279.807 462.545 279.807 462.807 279.801L462.987 277.985L465.034 256.916L465.137 255.856L466.916 237.529L468.047 225.895L468.149 224.887L468.16 224.789L468.273 223.601L468.329 223.024L472.067 184.595L472.17 183.545L473.492 169.957L472.705 169.88L470.134 196.233Z" fill="#15926A"/>
<path d="M478.35 179.035L471.448 184.068L471.911 184.704L478.813 179.671L478.35 179.035Z" fill="#15926A"/>
<path d="M452.179 179.037L451.636 179.606L470.189 197.348L470.732 196.779L452.179 179.037Z" fill="#15926A"/>
<path d="M462.356 206.897L461.83 207.483L468.605 213.571L469.13 212.986L462.356 206.897Z" fill="#15926A"/>
<path d="M478.31 216.329L467.405 225.383L467.907 225.989L478.813 216.935L478.31 216.329Z" fill="#15926A"/>
<path d="M490.122 237.128L464.418 256.359L464.889 256.99L490.593 237.759L490.122 237.128Z" fill="#15926A"/>
<path d="M467.111 193.069L448.483 175.097C448.483 175.097 451.82 197.242 467.111 193.069Z" fill="#15926A"/>
<path d="M483.584 258.614C485.415 258.449 490.006 257.734 496.459 251.683C507.456 241.367 511.205 227.403 512.608 219.7C497.96 230.876 483.317 242.056 468.669 253.232C470.345 254.683 476.078 259.288 483.584 258.614Z" fill="#15926A"/>
<path d="M450.447 243.872L450.257 242.926L442.005 201.147L441.809 200.164L436.519 173.358L436.313 172.334L431.866 149.803L431.094 149.952L438.616 188.047L438.812 189.03L445.923 225.041L446.113 225.972L456.386 277.985L456.746 279.796C457.008 279.801 457.275 279.801 457.542 279.801L457.177 277.985L450.447 243.872Z" fill="#15926A"/>
<path d="M447.859 157.291L435.788 173.003L436.412 173.483L448.483 157.77L447.859 157.291Z" fill="#15926A"/>
<path d="M402.417 169.382L402.056 170.081L438.976 189.138L439.337 188.439L402.417 169.382Z" fill="#15926A"/>
<path d="M447.864 193.04L441.292 200.801L441.892 201.309L448.464 193.549L447.864 193.04Z" fill="#15926A"/>
<path d="M389.442 200.758L389.132 201.481L446.294 226.04L446.604 225.316L389.442 200.758Z" fill="#15926A"/>
<path d="M478.082 213.057L449.717 243.494L450.293 244.031L478.657 213.594L478.082 213.057Z" fill="#15926A"/>
<path d="M418.138 189.941C433.444 192.688 436.797 186.704 436.797 186.704L394.595 164.806C394.59 164.801 402.832 187.188 418.138 189.941Z" fill="#15926A"/>
<path d="M456.401 145.692L440.755 166.314C456.504 168.089 456.401 145.692 456.401 145.692Z" fill="#15926A"/>
<path d="M399.69 222.355C403.886 226.636 407.017 228.967 411.166 230.089C417.038 231.678 422.38 230.166 426.555 228.982C426.555 228.982 429.177 228.241 440.941 222.834L381.957 197.072C388.091 209.374 394.914 217.478 399.69 222.355Z" fill="#15926A"/>
<path d="M454.998 237.395C489.698 243.152 485.446 204.537 485.446 204.537L454.998 237.395Z" fill="#15926A"/>
<path d="M426.868 191.911C425.711 192.318 424.534 192.662 423.341 192.899C420.95 193.331 418.498 193.414 416.158 192.858C413.814 192.338 411.608 191.278 409.659 189.858C407.69 188.454 405.958 186.704 404.425 184.79C402.878 182.886 401.541 180.803 400.312 178.662C399.099 176.506 398.009 174.273 397.032 171.984C396.045 169.699 395.171 167.363 394.405 164.981C394.872 167.441 395.587 169.854 396.405 172.226C397.243 174.592 398.209 176.923 399.366 179.167C400.508 181.42 401.855 183.576 403.397 185.598C404.955 187.61 406.765 189.452 408.847 190.975C410.94 192.472 413.33 193.614 415.881 194.134C418.431 194.659 421.074 194.54 423.562 193.949C424.806 193.64 426.02 193.239 427.192 192.75C428.354 192.235 429.495 191.685 430.575 191.031C432.745 189.745 434.765 188.237 436.627 186.565C434.575 188.001 432.472 189.339 430.251 190.434C429.161 191.011 428.015 191.479 426.868 191.911Z" fill="#15926A"/>
<path d="M455.558 154.392C455.352 155.71 455.136 157.022 454.833 158.308C454.54 159.594 454.195 160.865 453.722 162.079C453.27 163.294 452.699 164.462 451.938 165.46C451.198 166.468 450.221 167.261 449.069 167.667C447.918 168.063 446.607 168.058 445.337 167.77C444.056 167.502 442.812 166.983 441.583 166.417C442.653 167.24 443.84 167.945 445.151 168.418C446.452 168.881 447.943 169.077 449.378 168.691C450.823 168.336 452.057 167.369 452.961 166.262C453.866 165.136 454.499 163.86 455.008 162.563C455.969 159.944 456.427 157.222 456.622 154.506C456.812 151.789 456.771 149.067 456.401 146.381C456.201 149.083 455.949 151.753 455.558 154.392Z" fill="#15926A"/>
<path d="M458.792 193.522C457.471 193.357 456.19 192.992 455.008 192.467C453.82 191.952 452.74 191.222 451.877 190.275C450.987 189.354 450.303 188.238 449.794 187.034C449.27 185.835 448.951 184.538 448.72 183.221C448.504 181.899 448.396 180.546 448.385 179.187C448.36 177.824 448.427 176.455 448.565 175.081C448.128 176.398 447.882 177.767 447.717 179.151C447.568 180.535 447.527 181.945 447.66 183.355C447.779 184.765 448.087 186.169 448.591 187.517C449.11 188.865 449.876 190.136 450.879 191.217C451.892 192.287 453.152 193.115 454.494 193.661C454.823 193.82 455.172 193.913 455.517 194.016C455.861 194.119 456.206 194.237 456.56 194.293L457.614 194.494C457.969 194.53 458.324 194.556 458.679 194.582C461.512 194.787 464.298 194.283 466.926 193.45C464.18 193.733 461.435 193.913 458.792 193.522Z" fill="#15926A"/>
<path d="M506.736 237.24C505.595 240.07 504.413 242.879 503.055 245.596C501.718 248.323 500.253 250.988 498.551 253.479C496.875 255.984 494.952 258.33 492.654 260.208C491.507 261.145 490.258 261.948 488.911 262.514C487.569 263.085 486.124 263.383 484.669 263.383C481.744 263.383 478.89 262.128 476.448 260.383C473.964 258.655 471.82 256.442 469.795 254.153C470.257 254.76 470.705 255.387 471.183 255.984C471.676 256.571 472.155 257.178 472.684 257.734C473.702 258.886 474.839 259.941 476.042 260.924C477.25 261.901 478.592 262.725 480.031 263.368C481.471 264.006 483.044 264.397 484.649 264.453C486.253 264.515 487.877 264.227 489.363 263.625C490.854 263.033 492.222 262.195 493.466 261.222C495.944 259.251 497.945 256.808 499.693 254.245C503.148 249.074 505.647 243.389 507.734 237.611C509.806 231.822 511.436 225.885 512.588 219.86C511.744 222.808 510.86 225.736 509.863 228.627C508.901 231.534 507.857 234.405 506.736 237.24Z" fill="#15926A"/>
<path d="M394.713 221.542C393.325 220.308 392.019 218.98 390.847 217.539C388.492 214.663 386.595 211.417 385.124 207.974C384.399 206.251 383.767 204.476 383.248 202.665C382.718 200.859 382.296 199.012 382.014 197.134C381.998 199.037 382.24 200.946 382.595 202.824C382.965 204.702 383.469 206.56 384.127 208.365C384.769 210.177 385.592 211.931 386.528 213.619C387.474 215.301 388.574 216.901 389.782 218.414C391.022 219.901 392.394 221.28 393.865 222.535L395.001 223.441C395.382 223.739 395.788 224.002 396.179 224.285C396.95 224.866 397.808 225.319 398.631 225.823C402.009 227.681 405.69 228.936 409.444 229.533C405.824 228.375 402.354 226.868 399.181 224.897C397.623 223.858 396.096 222.793 394.713 221.542Z" fill="#15926A"/>
<path d="M485.513 204.712C486.793 207.722 487.615 210.887 487.893 214.066C488.16 217.241 487.78 220.457 486.531 223.333C485.929 224.774 485.122 226.142 484.124 227.362C483.147 228.602 482.021 229.728 480.777 230.727C478.304 232.749 475.456 234.344 472.494 235.738C475.656 234.884 478.721 233.531 481.43 231.581C484.15 229.661 486.469 227.017 487.795 223.878C488.448 222.314 488.885 220.652 489.07 218.975C489.24 217.292 489.214 215.6 488.957 213.948C488.464 210.645 487.302 207.465 485.513 204.712Z" fill="#15926A"/>
<path d="M352.866 208.484L313.703 329.705L317.549 329.53L322.321 329.303L360.584 208.083H353L352.866 208.484Z" fill="#C74E10"/>
<path d="M313.703 329.705L317.549 329.53L355.756 208.484H352.866L313.703 329.705Z" fill="#81261A"/>
<path d="M395.741 301.699H322.665V307.302H395.741V301.699Z" fill="#81261A"/>
<path d="M366.095 208.083H358.512L358.64 208.484L396.775 329.303L400.364 329.473L401.546 329.53L405.397 329.705L366.229 208.484L366.095 208.083Z" fill="#C74E10"/>
<path d="M361.273 208.484H358.64L396.775 329.303L400.364 329.473L361.401 208.88L361.273 208.484Z" fill="#81261A"/>
<path d="M179.823 208.484L140.655 329.705L144.501 329.53L149.272 329.303L187.536 208.083H179.952L179.823 208.484Z" fill="#C74E10"/>
<path d="M140.655 329.705L144.501 329.53L182.713 208.484H179.823L140.655 329.705Z" fill="#81261A"/>
<path d="M222.693 301.699H149.617V307.302H222.693V301.699Z" fill="#81261A"/>
<path d="M193.052 208.083H185.469L185.592 208.484L223.732 329.303L227.316 329.473L228.503 329.53L232.349 329.705L193.186 208.484L193.052 208.083Z" fill="#C74E10"/>
<path d="M188.225 208.484H185.592L223.732 329.303L227.316 329.473L188.358 208.88L188.225 208.484Z" fill="#81261A"/>
<path d="M146.054 211.283H401.829L405.511 204.882H149.735L146.054 211.283Z" fill="#81261A"/>
<path d="M212.93 211.283H401.829L405.511 204.882H216.611L212.93 211.283Z" fill="#C74E10"/>
<path d="M294.958 325.902C294.958 325.902 295.785 339.367 306.161 338.081C316.531 336.795 312.156 321.241 312.156 321.241L294.958 325.902Z" fill="white"/>
<path d="M298.114 306.613C287.816 309.777 294.407 315.792 294.407 315.792L295.343 315.596L308.433 312.844C308.439 312.844 308.413 303.454 298.114 306.613Z" fill="#C6E2D7"/>
<path d="M312.197 321.714C312.171 321.416 312.14 321.148 312.115 320.912C312.089 320.665 312.058 320.423 312.017 320.171C311.971 319.877 311.94 319.708 311.94 319.708H311.93C311.39 316.842 310.063 313.6 307.729 310.086L293.698 313.034C293.698 313.034 293.127 318.421 294.32 323.407H294.315C294.315 323.407 296.927 337.654 305.755 335.802C312.48 334.387 312.547 325.794 312.207 321.771C312.197 321.745 312.197 321.73 312.197 321.714Z" fill="#C6E2D7"/>
<path d="M305.893 334.639C301.05 336.049 296.7 328.67 294.824 325.465C296.5 329.123 300.701 336.615 306.089 335.143C310.834 333.327 311.899 325.83 312.197 321.714C311.523 325.558 310.274 333.013 305.893 334.639Z" fill="#89BCBA"/>
<path d="M307.195 313.133C307.195 313.102 307.19 313.065 307.185 313.034C307.149 313.019 307.112 313.003 307.076 312.993L307.195 313.133Z" fill="#89BCBA"/>
<path d="M307.184 313.034C307.189 313.065 307.194 313.101 307.194 313.132L307.076 312.993C307.117 313.008 307.148 313.019 307.184 313.034C306.999 310.832 305.544 308.65 303.184 307.879C300.474 307.055 296.068 307.539 295.137 310.415C294.567 312.01 295.425 313.713 295.333 315.272C295.317 315.375 295.22 315.458 295.148 315.535C295.035 315.638 294.937 315.777 294.86 315.905C294.022 317.68 294.037 319.671 293.96 321.565C294.202 319.718 294.315 317.768 295.178 316.065L295.286 315.905L295.415 315.782C295.837 315.473 295.801 314.902 295.765 314.495C295.148 311.115 295.173 308.671 299.605 308.131C303.333 307.436 306.464 309.757 306.855 313.147L306.865 313.255L306.968 313.286C308.726 313.883 310.495 314.953 311.102 316.651C310.639 314.912 308.942 313.713 307.184 313.034Z" fill="#89BCBA"/>
<path d="M236.246 80.4302C235.455 80.3376 234.74 80.9036 234.647 81.6959C234.555 82.4883 235.12 83.2035 235.912 83.2961C236.704 83.3887 237.419 82.8227 237.511 82.0304C237.604 81.238 237.033 80.5228 236.246 80.4302Z" fill="#1A252C"/>
<path d="M246.447 81.3717C245.655 81.2791 244.941 81.8451 244.848 82.6375C244.756 83.4298 245.321 84.145 246.113 84.2376C246.905 84.3302 247.619 83.7643 247.712 82.9719C247.804 82.1795 247.239 81.4644 246.447 81.3717Z" fill="#1A252C"/>
<path d="M237.66 76.9263C237.228 76.7668 236.75 76.5764 236.236 76.3501C233.629 75.2284 232.904 74.4978 231.475 74.3692C230.683 74.2971 229.418 74.3795 227.794 75.3673C228.483 75.3004 229.506 75.2902 230.606 75.6966C231.892 76.17 232.534 76.8954 233.259 77.4357C234.277 78.1972 235.948 78.9381 238.807 78.7992C238.899 77.9811 238.426 77.2145 237.66 76.9263Z" fill="#C94F12"/>
<path d="M245.84 76.9006C245.306 77.0807 244.812 77.2351 244.375 77.3637C243.588 77.5901 243.059 78.3207 243.09 79.1336C245.928 79.499 247.655 78.8867 248.725 78.2075C249.486 77.7239 250.185 77.055 251.501 76.6845C252.632 76.3655 253.655 76.453 254.334 76.5765C252.787 75.4651 251.532 75.285 250.74 75.2953C249.301 75.3159 248.524 75.9796 245.84 76.9006Z" fill="#C94F12"/>
<path d="M234.113 92.7838C233.599 92.5934 233.12 92.2384 232.606 91.9091C232.365 91.7136 232.113 91.5284 231.845 91.3431C231.593 91.1373 231.331 90.9367 231.028 90.7566C231.12 91.1322 231.259 91.4872 231.403 91.8371C231.568 92.1664 231.768 92.4751 231.969 92.7838C232.426 93.3343 232.956 93.8591 233.635 94.1216C234.293 94.3994 235.064 94.4611 235.773 94.2142C236.478 93.9723 237.131 93.463 237.511 92.7426C236.853 93.005 236.257 93.1234 235.691 93.1234C235.141 93.1234 234.622 92.9948 234.113 92.7838Z" fill="#CE6862"/>
<path d="M241.393 82.2361C241.331 82.8329 241.347 83.3577 241.357 83.862C241.372 84.3611 241.393 84.8396 241.367 85.246C241.357 85.4518 241.331 85.6319 241.29 85.7811C241.249 85.9355 241.198 86.0538 241.1 86.1824C240.905 86.4551 240.431 86.661 239.881 86.8925C240.128 87.0674 240.401 87.1909 240.709 87.2424C241.012 87.2938 241.367 87.2732 241.712 87.1137C242.056 86.9594 242.349 86.6507 242.519 86.3214C242.694 85.9921 242.761 85.6473 242.781 85.3283C242.817 84.6852 242.668 84.1089 242.437 83.5893C242.195 83.0799 241.871 82.6065 241.393 82.2361Z" fill="#CE6862"/>
<path d="M248.956 75.3519C245.666 75.1306 242.807 77.6363 242.591 80.9292C242.37 84.2222 244.874 87.0829 248.164 87.299C251.455 87.5202 254.314 85.0145 254.53 81.7216C254.751 78.4338 252.247 75.5731 248.956 75.3519ZM254.021 81.6907C253.82 84.7058 251.208 86.9954 248.195 86.7948C245.182 86.5941 242.894 83.9803 243.095 80.9653C243.295 77.9502 245.907 75.6606 248.92 75.8612C251.933 76.0619 254.221 78.6757 254.021 81.6907Z" fill="#1A252C"/>
<path d="M235.748 74.4772C232.457 74.256 229.598 76.7617 229.382 80.0546C229.161 83.3475 231.665 86.2083 234.956 86.4244C238.246 86.6456 241.105 84.1399 241.321 80.847C241.537 77.554 239.038 74.6933 235.748 74.4772ZM240.812 80.811C240.612 83.826 238 86.1157 234.987 85.915C231.974 85.7143 229.686 83.1006 229.886 80.0855C230.087 77.0704 232.699 74.7808 235.712 74.9815C238.725 75.1821 241.013 77.801 240.812 80.811Z" fill="#1A252C"/>
<path d="M242.421 79.8334C241.995 79.7099 241.506 79.8282 240.956 80.1781L241.234 80.6051C241.64 80.3427 242 80.245 242.272 80.317C242.545 80.389 242.658 80.6103 242.663 80.6206L243.121 80.3993C243.115 80.389 242.915 79.9774 242.421 79.8334Z" fill="#1A252C"/>
<path d="M323.092 156.111C320.511 154.449 315.174 159.044 315.174 159.044V160.618L313.688 159.743C310.624 161.23 305.328 169.375 305.328 169.375L306.773 171.305L304.85 170.955C302.397 174.634 302.778 183.272 302.778 183.272C304.86 183.941 311.107 177.222 311.107 177.222L308.742 176.213C308.742 176.213 311.76 176.522 312.459 176.038C313.158 175.555 316.968 170.476 316.968 170.476L314.516 168.593C314.516 168.593 317.359 169.555 317.883 169.514C318.408 169.468 319.678 165.923 319.678 165.923L317.755 164.261H320.511C320.511 164.256 325.673 157.773 323.092 156.111Z" fill="#B1D1FA"/>
<path d="M308.305 194.309C308.135 193.645 307.539 193.177 306.855 193.177H295.137C294.453 193.177 293.857 193.645 293.687 194.309L291.615 202.551C291.379 203.493 292.094 204.414 293.065 204.414H308.922C309.893 204.414 310.608 203.498 310.372 202.551L308.305 194.309Z" fill="#033A51"/>
<path d="M305.328 191.5H296.665V193.177H305.328V191.5Z" fill="#0C292B"/>
<path d="M306.968 189.266H295.024V191.499H306.968V189.266Z" fill="#033A51"/>
<path d="M300.69 189.267C303.791 180.957 307.081 172.334 312.917 165.537L314.166 164.251C307.348 169.951 303.05 180.854 300.69 189.267Z" fill="#5CA0A2"/>
<path d="M293.394 43.4002C293.009 43.498 292.675 43.4774 292.397 43.3333C292.119 43.1893 291.79 42.8394 291.41 42.2786L283.734 31.1238L282.006 31.556L280.484 44.9026C280.412 45.5355 280.33 45.9574 280.242 46.1683C280.155 46.3793 280.032 46.5491 279.872 46.6777C279.713 46.8063 279.43 46.9195 279.024 47.0224L279.245 47.9074L283.641 46.8012L283.42 45.9162C283.297 45.9368 283.142 45.9728 282.952 46.0243C282.669 46.0963 282.458 46.122 282.32 46.1014C282.181 46.0809 282.057 46.0243 281.96 45.9419C281.857 45.8545 281.79 45.7413 281.754 45.6024C281.723 45.4737 281.723 45.2319 281.759 44.8717L282.104 41.3936L287.435 40.0507L289.127 42.6542C289.471 43.1841 289.657 43.5186 289.698 43.6678C289.749 43.8736 289.687 44.0639 289.518 44.2492C289.43 44.3469 289.214 44.4395 288.88 44.5219C288.721 44.563 288.556 44.6093 288.392 44.6659L288.613 45.5509L293.847 44.2337L293.626 43.3488L293.394 43.4002ZM282.217 40.2565L282.906 33.3516L286.762 39.1143L282.217 40.2565Z" fill="white"/>
<path d="M324.002 113.725L324.315 113.895C324.742 114.126 325.015 114.327 325.128 114.497C325.241 114.666 325.292 114.846 325.277 115.052C325.261 115.258 325.123 115.592 324.866 116.071L321.066 123.038C320.634 123.835 320.192 124.38 319.739 124.684C319.292 124.982 318.737 125.137 318.084 125.142C317.431 125.147 316.783 124.977 316.156 124.633C315.39 124.216 314.876 123.681 314.603 123.038C314.331 122.389 314.325 121.828 314.583 121.36C314.644 121.247 314.783 121.062 314.999 120.805C315.2 120.558 315.323 120.393 315.374 120.3C315.539 119.997 315.59 119.698 315.529 119.415C315.462 119.132 315.302 118.921 315.05 118.783C314.727 118.608 314.382 118.587 314.027 118.731C313.667 118.875 313.359 119.184 313.097 119.662C312.577 120.619 312.531 121.679 312.963 122.852C313.395 124.02 314.289 124.977 315.642 125.718C316.66 126.274 317.652 126.562 318.619 126.583C319.585 126.603 320.408 126.408 321.076 125.991C321.75 125.574 322.372 124.838 322.953 123.773L326.794 116.73C326.963 116.421 327.128 116.21 327.287 116.097C327.447 115.984 327.616 115.932 327.801 115.937C327.981 115.942 328.244 116.04 328.588 116.23L329.092 116.508L329.529 115.706L324.429 112.922L324.002 113.725Z" fill="white"/>
<path d="M346.059 49.8882C345.128 49.4509 343.437 49.065 340.979 48.7357L335.611 48.0154L335.488 48.9209C336.244 49.0238 336.681 49.101 336.804 49.1628C337.015 49.2811 337.154 49.456 337.226 49.6927C337.277 49.8676 337.262 50.2433 337.185 50.8144L335.838 60.8784C335.771 61.3723 335.704 61.6862 335.637 61.8199C335.539 61.9897 335.401 62.1184 335.216 62.2007C335.03 62.2881 334.809 62.3087 334.542 62.2727L334.336 62.2367L333.709 62.1544L333.586 63.0599L341.272 64.089C342.208 64.2125 343.149 64.2279 344.1 64.1353C345.051 64.0375 345.884 63.77 346.609 63.3223C347.483 62.7975 348.234 62.0463 348.861 61.0687C349.483 60.0963 349.879 59.0055 350.039 57.7964C350.275 56.0213 349.997 54.3851 349.195 52.8827C348.476 51.5347 347.432 50.5365 346.059 49.8882ZM347.771 57.3385C347.643 58.3161 347.401 59.1702 347.062 59.8956C346.717 60.6211 346.29 61.2282 345.771 61.7119C345.252 62.1955 344.738 62.53 344.229 62.7101C343.884 62.8335 343.324 62.9004 342.558 62.9159C341.792 62.9313 341.247 62.9159 340.923 62.8747L337.663 62.4374L339.365 49.7287L341.576 50.0272C342.501 50.1506 343.164 50.2587 343.555 50.3462C344.28 50.5262 344.918 50.8041 345.468 51.1797C346.023 51.5604 346.501 52.0646 346.913 52.6975C347.324 53.3304 347.601 54.0198 347.745 54.7659C347.895 55.5119 347.905 56.3712 347.771 57.3385Z" fill="white"/>
<path d="M300.407 119.827C299.842 120.275 299.199 120.588 298.479 120.763C297.759 120.943 296.937 120.969 296.011 120.846L295.204 120.738C294.721 120.671 294.433 120.614 294.34 120.558C294.207 120.48 294.124 120.372 294.099 120.239C294.073 120.141 294.094 119.853 294.16 119.369L295.569 108.873C295.621 108.482 295.698 108.214 295.795 108.075C295.893 107.931 296.037 107.833 296.222 107.777C296.407 107.72 296.705 107.72 297.122 107.777L297.662 107.849L297.785 106.943L291.955 106.161L291.831 107.067L292.304 107.129C292.793 107.195 293.106 107.278 293.25 107.37C293.389 107.468 293.487 107.607 293.543 107.797C293.6 107.988 293.59 108.343 293.523 108.862L292.15 119.101C292.088 119.549 292.006 119.858 291.893 120.028C291.785 120.197 291.641 120.316 291.471 120.372C291.302 120.429 290.988 120.429 290.531 120.367L290.058 120.305L289.934 121.211L300.757 122.662L303.071 118.175L302.155 117.723C301.554 118.674 300.973 119.379 300.407 119.827Z" fill="white"/>
<path d="M335.807 37.8742L336.177 38.2138C336.506 38.5174 336.696 38.7541 336.738 38.9239C336.779 39.0937 336.727 39.2532 336.588 39.4127C336.46 39.5516 336.218 39.7111 335.858 39.886L325.75 44.8717L329.889 34.4012C330.033 34.0308 330.172 33.7684 330.305 33.6243C330.388 33.5317 330.491 33.4751 330.614 33.4545C330.737 33.4339 330.866 33.4545 331.005 33.5214C331.097 33.5677 331.293 33.7272 331.581 33.9896L331.894 34.2778L332.511 33.6037L328.434 29.858L327.817 30.5321C328.048 30.743 328.208 30.9231 328.305 31.0774C328.403 31.2318 328.465 31.3862 328.496 31.5405C328.526 31.6949 328.526 31.8647 328.496 32.0447C328.475 32.1631 328.383 32.4358 328.218 32.8628L323.318 45.767L324.449 46.8063L336.912 40.8585C337.37 40.6424 337.72 40.5137 337.966 40.4674C338.157 40.4417 338.347 40.4674 338.542 40.5395C338.738 40.6115 338.984 40.7864 339.277 41.0643L339.894 40.3902L336.424 37.2002L335.807 37.8742Z" fill="white"/>
<path d="M305.086 95.8657C304.922 95.8915 304.747 95.8812 304.557 95.8349C304.366 95.7885 304.084 95.6753 303.703 95.485L299.523 93.4063L300.603 90.0517C300.649 89.8922 300.752 89.6658 300.901 89.3673C300.968 89.2284 301.086 89.0844 301.246 88.9351C301.405 88.7859 301.605 88.6573 301.837 88.5441L301.59 88.0502L298.654 89.5166L298.901 90.0105L299.091 89.9179C299.317 89.8047 299.477 89.7481 299.564 89.7481C299.652 89.7481 299.713 89.7841 299.749 89.8561C299.775 89.9127 299.791 89.9745 299.785 90.0414C299.78 90.1082 299.744 90.2677 299.672 90.525L298.222 95.3409L296.664 92.2229C296.551 91.9965 296.49 91.8267 296.474 91.7135C296.449 91.5592 296.474 91.4254 296.551 91.3071C296.628 91.1887 296.793 91.0704 297.05 90.9366L297.276 90.8234L297.03 90.3295L293.857 91.9142L294.104 92.4082L294.284 92.3155C294.577 92.1663 294.783 92.0943 294.896 92.0892C295.009 92.0892 295.112 92.1252 295.209 92.2075C295.307 92.2898 295.43 92.4699 295.574 92.758L298.284 98.1811C298.428 98.4743 298.505 98.6904 298.515 98.8294C298.526 98.9683 298.495 99.0866 298.428 99.1792C298.361 99.2718 298.207 99.385 297.96 99.5085L297.713 99.632L297.96 100.126L301.132 98.5412L300.886 98.0473C300.5 98.2377 300.253 98.3406 300.145 98.3509C300.006 98.3611 299.888 98.3303 299.785 98.2582C299.683 98.1862 299.564 98.0164 299.425 97.7437L298.639 96.1693L299.153 94.5691L302.253 96.1641C302.706 96.3905 302.958 96.5603 303.009 96.6581C303.035 96.7095 303.04 96.7661 303.025 96.833C303.009 96.8999 302.973 96.9565 302.911 97.008C302.875 97.044 302.742 97.116 302.51 97.2292L302.305 97.3321L302.552 97.826L306.037 96.0818L305.791 95.5879C305.482 95.7525 305.251 95.84 305.086 95.8657Z" fill="white"/>
<path d="M318.932 42.3917C318.418 42.5203 318.084 42.5718 317.93 42.546C317.775 42.5203 317.642 42.4328 317.529 42.2939C317.421 42.155 317.302 41.8463 317.184 41.3781L315.441 34.535L317.421 34.0307L317.148 32.9554L315.169 33.4596L314.655 31.4427C314.505 30.8664 314.449 30.424 314.48 30.1204C314.511 29.8168 314.603 29.5699 314.752 29.3795C314.901 29.1891 315.092 29.0605 315.323 29.0039C315.662 28.9164 316.058 29.0039 316.521 29.2611C316.958 29.5081 317.272 29.6522 317.462 29.6933C317.652 29.7345 317.863 29.7242 318.094 29.6676C318.356 29.6007 318.547 29.4618 318.675 29.2457C318.804 29.0296 318.835 28.7929 318.773 28.5408C318.675 28.1601 318.372 27.8668 317.858 27.6507C317.344 27.4397 316.701 27.4295 315.924 27.625C314.768 27.9182 313.914 28.5048 313.369 29.3846C312.824 30.2593 312.69 31.242 312.968 32.3328L313.369 33.9124L311.564 34.3703L311.837 35.4457L313.642 34.9877L315.343 41.6765C315.493 42.2373 315.554 42.6026 315.529 42.7827C315.503 42.9577 315.421 43.1017 315.287 43.2098C315.153 43.3178 314.809 43.4464 314.253 43.5854L313.924 43.6677L314.151 44.5527L319.58 43.1686L319.354 42.2836L318.932 42.3917Z" fill="white"/>
<path d="M314.557 99.4983C314.171 99.4469 313.724 99.5189 313.205 99.7144C312.691 99.9099 312.218 100.208 311.796 100.605L311.991 99.1536L311.416 99.0764C311.015 99.2411 310.66 99.3491 310.356 99.4006C310.053 99.4572 309.714 99.4726 309.333 99.452L309.246 100.09L310.577 100.27L309.971 104.808C309.925 105.163 309.858 105.405 309.775 105.528C309.693 105.657 309.58 105.75 309.436 105.806C309.333 105.847 309.122 105.853 308.809 105.806L308.48 105.76L308.392 106.408L312.367 106.943L312.454 106.295L312.202 106.259C311.919 106.223 311.724 106.177 311.616 106.125C311.508 106.074 311.421 106.002 311.354 105.914C311.287 105.827 311.246 105.724 311.225 105.606C311.205 105.492 311.22 105.282 311.261 104.973L311.734 101.428C311.991 101.191 312.331 100.96 312.757 100.733C313.092 100.558 313.39 100.491 313.647 100.522C313.837 100.548 314.058 100.671 314.315 100.893C314.434 100.996 314.521 101.068 314.583 101.098C314.644 101.134 314.722 101.155 314.814 101.171C315.02 101.196 315.205 101.15 315.369 101.032C315.534 100.908 315.626 100.759 315.652 100.574C315.688 100.316 315.606 100.085 315.411 99.8739C315.22 99.6784 314.932 99.5498 314.557 99.4983Z" fill="white"/>
<path d="M296.248 67.5981C295.857 67.4386 295.358 67.3923 294.762 67.454C294.16 67.5209 293.585 67.701 293.029 68.0045L293.636 66.5227L293.05 66.2809C292.582 66.3426 292.181 66.3581 291.842 66.3323C291.507 66.3066 291.142 66.2294 290.752 66.106L290.484 66.7542L291.837 67.3099L289.944 71.9355C289.795 72.2956 289.662 72.5323 289.538 72.6455C289.415 72.7587 289.271 72.8256 289.101 72.8462C288.978 72.8616 288.757 72.805 288.438 72.6764L288.104 72.5375L287.836 73.196L291.888 74.8528L292.155 74.1942L291.898 74.0862C291.61 73.9678 291.42 73.8701 291.317 73.7826C291.22 73.7003 291.142 73.6025 291.101 73.4893C291.055 73.3761 291.04 73.2578 291.05 73.1291C291.06 73.0005 291.132 72.7844 291.261 72.4706L292.741 68.8586C293.076 68.6786 293.502 68.5293 294.011 68.411C294.412 68.3184 294.747 68.3287 295.009 68.4367C295.204 68.5139 295.405 68.7094 295.616 69.013C295.708 69.1571 295.785 69.2548 295.842 69.3063C295.898 69.3577 295.975 69.404 296.068 69.4452C296.279 69.5327 296.484 69.5327 296.69 69.4503C296.896 69.368 297.04 69.2342 297.117 69.0439C297.225 68.7815 297.204 68.5139 297.055 68.2412C296.901 67.9737 296.634 67.7576 296.248 67.5981Z" fill="white"/>
<path d="M297.158 60.5903C296.988 60.4668 296.772 60.261 296.505 59.9626L293.723 56.8857L296.109 55.0746C296.479 54.7968 296.803 54.6116 297.081 54.5189C297.359 54.4263 297.734 54.38 298.197 54.38L298.202 53.6906L294.037 53.6648L294.032 54.3543L294.469 54.3594C294.726 54.3594 294.885 54.3749 294.952 54.4057C295.055 54.452 295.107 54.5086 295.107 54.5858C295.107 54.7093 294.865 54.9666 294.382 55.3473L291.348 57.7244L291.4 49.5281L290.767 49.5229C290.016 49.9243 289.291 50.1507 288.592 50.197L288.587 50.8813L290.006 50.8916L289.95 59.6178C289.944 60.0552 289.903 60.3536 289.816 60.5028C289.729 60.6572 289.59 60.7601 289.399 60.8218C289.291 60.8527 288.998 60.8733 288.52 60.8733L288.515 61.5627L292.736 61.5884L292.741 60.899H292.438C292.073 60.899 291.826 60.863 291.698 60.7961C291.569 60.7292 291.477 60.6314 291.415 60.5079C291.353 60.3793 291.328 60.1169 291.328 59.7207L291.333 58.6454L292.685 57.6369L294.855 60.1529C294.885 60.1941 294.916 60.225 294.942 60.2507C295.107 60.4153 295.189 60.544 295.184 60.6314C295.184 60.7189 295.137 60.7909 295.05 60.8424C294.963 60.8938 294.752 60.9196 294.418 60.9144H294.078L294.073 61.6039L298.443 61.6296L298.449 60.9401C298.089 60.935 297.821 60.9041 297.652 60.8578C297.497 60.7961 297.328 60.7086 297.158 60.5903Z" fill="white"/>
<path d="M326.814 90.062L326.691 90.9676L327.2 91.0345C327.601 91.0859 327.879 91.1682 328.028 91.2711C328.177 91.3792 328.28 91.5284 328.336 91.7188C328.393 91.9143 328.388 92.2333 328.326 92.6861L326.958 102.915C326.897 103.398 326.809 103.723 326.701 103.897C326.593 104.067 326.444 104.186 326.259 104.252C326.069 104.314 325.75 104.314 325.287 104.252L324.922 104.201L324.799 105.107L330.521 105.873L330.645 104.968L330.244 104.916C329.791 104.854 329.483 104.767 329.318 104.654C329.154 104.541 329.041 104.391 328.974 104.211C328.907 104.031 328.902 103.723 328.958 103.29L329.586 98.6082L331.226 98.8294C331.987 98.9323 332.506 99.0712 332.789 99.2513C333.066 99.4314 333.272 99.6938 333.401 100.033C333.529 100.373 333.56 100.826 333.483 101.397L333.406 101.978L334.46 102.122L335.344 95.5211L334.29 95.377L334.239 95.7783C334.156 96.3803 334.007 96.8382 333.781 97.1367C333.555 97.4402 333.267 97.646 332.907 97.7489C332.547 97.857 331.982 97.857 331.205 97.7489L329.73 97.5483L330.506 91.7651L333.75 92.2024C334.83 92.3465 335.606 92.542 336.084 92.7787C336.563 93.0205 336.969 93.3652 337.293 93.818C337.622 94.2708 337.92 94.986 338.193 95.9584L339.18 95.7269L338.316 91.5901L326.814 90.062Z" fill="white"/>
<path d="M327.591 54.91L327.822 54.9718C328.136 55.0541 328.341 55.1416 328.439 55.229C328.542 55.3165 328.598 55.4297 328.624 55.5635C328.645 55.6972 328.609 55.9391 328.516 56.2838L327.164 61.3724C327.01 61.9538 326.809 62.3757 326.568 62.6433C326.326 62.9057 325.992 63.096 325.57 63.1989C325.149 63.307 324.706 63.2967 324.249 63.1732C323.688 63.024 323.272 62.7616 322.999 62.386C322.722 62.0104 322.629 61.6502 322.722 61.3055C322.742 61.2232 322.804 61.0791 322.902 60.8836C322.994 60.6932 323.046 60.5646 323.061 60.5028C323.123 60.2816 323.107 60.0809 323.02 59.9112C322.933 59.7362 322.799 59.6282 322.614 59.5767C322.377 59.515 322.156 59.5561 321.945 59.7053C321.735 59.8546 321.585 60.1015 321.493 60.4514C321.308 61.1511 321.447 61.8406 321.909 62.5301C322.372 63.2144 323.097 63.6929 324.089 63.9553C324.835 64.1559 325.519 64.1817 326.146 64.0427C326.773 63.9038 327.272 63.6466 327.637 63.2761C328.007 62.9057 328.29 62.3294 328.501 61.5525L329.868 56.4073C329.93 56.1809 330.002 56.0214 330.084 55.9236C330.172 55.8259 330.275 55.7641 330.393 55.7435C330.511 55.7178 330.696 55.7435 330.948 55.8104L331.318 55.9082L331.473 55.3216L327.75 54.3286L327.591 54.91Z" fill="white"/>
<path d="M300.963 130.611C301.605 129.67 302.366 128.996 303.256 128.584C304.14 128.172 305.071 128.028 306.037 128.162C306.865 128.275 307.595 128.564 308.233 129.027C308.87 129.495 309.374 130.076 309.75 130.776C309.976 131.208 310.284 132.042 310.665 133.271L311.703 133.127L311.009 127.926L310.233 127.823L309.755 128.769C309.174 128.245 308.588 127.843 307.991 127.56C307.395 127.277 306.737 127.092 306.012 126.994C304.654 126.814 303.338 126.989 302.073 127.529C300.803 128.07 299.76 128.888 298.932 129.978C298.104 131.069 297.595 132.35 297.4 133.806C297.132 135.793 297.508 137.583 298.52 139.183C299.749 141.113 301.528 142.234 303.863 142.548C304.917 142.692 305.914 142.646 306.845 142.409C307.775 142.178 308.701 141.746 309.621 141.113C310.202 140.722 310.757 140.228 311.292 139.626L310.511 138.916C309.647 139.806 308.675 140.459 307.606 140.871C306.536 141.288 305.518 141.427 304.562 141.298C303.549 141.164 302.639 140.763 301.837 140.099C301.035 139.435 300.443 138.561 300.063 137.475C299.688 136.389 299.585 135.201 299.754 133.904C299.914 132.654 300.32 131.553 300.963 130.611Z" fill="white"/>
<path d="M287.183 100.249C286.669 100.368 286.33 100.414 286.176 100.383C286.021 100.352 285.888 100.265 285.78 100.121C285.672 99.9768 285.564 99.6681 285.456 99.1947L283.872 92.3105L285.867 91.8525L285.62 90.772L283.625 91.23L283.158 89.2028C283.024 88.6214 282.978 88.184 283.014 87.8804C283.05 87.5769 283.147 87.3299 283.302 87.1447C283.456 86.9543 283.651 86.836 283.883 86.7794C284.222 86.7022 284.618 86.7948 285.075 87.0624C285.507 87.3196 285.816 87.474 286.006 87.5203C286.196 87.5666 286.407 87.5614 286.638 87.51C286.901 87.4482 287.096 87.3145 287.23 87.0984C287.363 86.8874 287.399 86.6507 287.343 86.3986C287.255 86.0179 286.957 85.7143 286.448 85.4879C285.939 85.2615 285.296 85.241 284.52 85.421C283.353 85.6886 282.489 86.2546 281.924 87.119C281.358 87.9833 281.204 88.9609 281.456 90.0569L281.821 91.6467L280.011 92.0635L280.258 93.144L282.073 92.7272L283.62 99.452C283.759 100.018 283.811 100.383 283.78 100.558C283.749 100.733 283.667 100.872 283.533 100.98C283.399 101.088 283.05 101.201 282.494 101.33L282.165 101.407L282.371 102.297L287.831 101.037L287.626 100.147L287.183 100.249Z" fill="white"/>
<path d="M279.199 52.0545C279.481 52.2551 279.795 52.322 280.14 52.2551C280.484 52.1934 280.757 52.0185 280.952 51.7303C281.153 51.4422 281.219 51.1283 281.158 50.7836C281.096 50.4389 280.921 50.1713 280.633 49.981C280.345 49.7854 280.032 49.7237 279.687 49.7854C279.343 49.8472 279.075 50.0221 278.88 50.3051C278.685 50.5881 278.618 50.9019 278.679 51.2415C278.741 51.5811 278.916 51.8538 279.199 52.0545Z" fill="white"/>
<path d="M281.512 54.4366L280.736 54.5807C280.186 55.0129 279.728 55.3268 279.363 55.5223C279.003 55.7127 278.561 55.8876 278.037 56.0317L278.201 56.9218L280.052 56.577L282.001 67.1195C282.129 67.8244 282.129 68.3544 281.996 68.7043C281.821 69.1776 281.507 69.4606 281.065 69.5378C280.88 69.5738 280.705 69.5584 280.541 69.5018C280.314 69.4246 279.996 69.2497 279.589 68.9667C279.317 68.7815 279.116 68.6683 278.978 68.6271C278.839 68.5859 278.69 68.5808 278.515 68.6117C278.222 68.6631 278.001 68.802 277.857 69.0233C277.708 69.2445 277.661 69.4966 277.713 69.7796C277.775 70.1244 278.068 70.4125 278.582 70.6492C279.096 70.8858 279.739 70.9321 280.51 70.7881C281.307 70.6389 281.965 70.3456 282.479 69.9031C282.993 69.4606 283.358 68.9255 283.574 68.2927C283.79 67.6649 283.821 66.924 283.662 66.0854L281.512 54.4366Z" fill="white"/>
<path d="M320.701 86.0693L320.254 85.9509C319.873 86.0333 319.56 86.0796 319.318 86.0847C319.076 86.095 318.819 86.0744 318.542 86.0281L318.408 86.5323L319.405 86.7947L318.711 89.4136C318.516 89.0843 318.274 88.8065 317.991 88.5956C317.704 88.3795 317.374 88.22 316.999 88.1222C316.511 87.9936 316.022 87.9987 315.544 88.1428C315.066 88.2868 314.639 88.5647 314.259 88.9814C313.878 89.3931 313.616 89.8921 313.462 90.4684C313.246 91.2813 313.297 92.0377 313.621 92.7374C313.94 93.4372 314.459 93.8848 315.174 94.0752C315.524 94.1678 315.889 94.1832 316.274 94.1266C316.66 94.07 317.097 93.9105 317.59 93.6584L317.339 94.6L319.421 95.0528L319.554 94.5537L319.297 94.4868C319.025 94.4148 318.85 94.3376 318.768 94.2501C318.691 94.1678 318.65 94.0443 318.65 93.8848C318.655 93.8076 318.696 93.607 318.788 93.2725L320.701 86.0693ZM318.341 90.8234L317.745 93.0667C317.359 93.2674 316.979 93.4012 316.603 93.4681C316.228 93.5298 315.904 93.5298 315.642 93.4578C315.374 93.3857 315.133 93.2262 314.927 92.9793C314.716 92.7323 314.583 92.4133 314.521 92.0274C314.459 91.6415 314.495 91.2093 314.619 90.736C314.752 90.2317 314.948 89.8253 315.205 89.5166C315.462 89.2078 315.76 88.9969 316.105 88.8837C316.444 88.7705 316.788 88.7653 317.133 88.8528C317.421 88.93 317.683 89.0792 317.919 89.3004C318.156 89.5217 318.305 89.7532 318.372 89.9899C318.434 90.2266 318.428 90.5044 318.341 90.8234Z" fill="white"/>
<path d="M339.622 81.3974C339.139 81.5261 338.799 81.5621 338.604 81.5004C338.409 81.4386 338.239 81.2843 338.1 81.0373C338.038 80.9189 337.93 80.5639 337.776 79.9774L334.398 67.2173L333.612 67.4282C333.097 67.8862 332.655 68.2309 332.29 68.4573C331.925 68.6837 331.514 68.8843 331.046 69.0541L331.282 69.9494L333.046 69.4812L334.275 74.1221C333.684 73.7826 333.072 73.5767 332.444 73.4944C331.817 73.4121 331.169 73.4636 330.501 73.6385C329.632 73.87 328.892 74.3074 328.28 74.9454C327.668 75.5885 327.257 76.3963 327.036 77.3636C326.814 78.3361 326.84 79.3291 327.113 80.353C327.493 81.7885 328.239 82.9101 329.344 83.7076C330.449 84.5051 331.637 84.7367 332.907 84.4022C333.524 84.2376 334.105 83.9443 334.645 83.5121C335.19 83.0851 335.725 82.4574 336.254 81.6341L336.696 83.3063L340.301 82.1692L340.064 81.2843L339.622 81.3974ZM334.578 82.2001C334.054 82.6272 333.555 82.905 333.087 83.0285C332.609 83.1571 332.1 83.1211 331.56 82.9204C331.02 82.7198 330.532 82.3545 330.1 81.8091C329.668 81.2688 329.339 80.5742 329.118 79.7355C328.881 78.8454 328.825 78.0479 328.953 77.343C329.077 76.6381 329.354 76.0516 329.781 75.5834C330.208 75.1152 330.727 74.7962 331.334 74.6367C331.848 74.5029 332.383 74.5029 332.938 74.6367C333.498 74.7756 333.93 74.9968 334.239 75.3004C334.547 75.604 334.779 76.0413 334.928 76.6073L335.982 80.5845C335.57 81.2328 335.103 81.7731 334.578 82.2001Z" fill="white"/>
<path d="M304.248 34.0772C303.163 33.9331 302.171 34.0309 301.271 34.3807C300.372 34.7306 299.631 35.2863 299.05 36.0529C298.469 36.8196 298.109 37.7251 297.965 38.7696C297.754 40.3286 298.089 41.7023 298.963 42.8909C299.837 44.0794 301.009 44.7689 302.48 44.9644C304.372 45.2165 306.109 44.5322 307.703 42.9063L307.086 42.2529C306.361 42.86 305.847 43.2408 305.539 43.3951C305.122 43.6164 304.69 43.7707 304.243 43.853C303.796 43.9354 303.364 43.9508 302.947 43.8942C302.042 43.7707 301.312 43.3076 300.752 42.4998C300.109 41.5634 299.883 40.3903 300.073 38.9702C300.197 38.0595 300.454 37.2929 300.845 36.6755C301.24 36.0581 301.719 35.6156 302.284 35.348C302.85 35.0805 303.441 34.9879 304.048 35.0702C304.449 35.1216 304.803 35.2554 305.107 35.4664C305.41 35.6773 305.657 35.9397 305.842 36.2587C305.929 36.4182 306.043 36.7166 306.181 37.1591C306.289 37.5193 306.367 37.7303 306.413 37.8074C306.521 37.9669 306.634 38.0904 306.747 38.1727C306.86 38.2551 306.983 38.3014 307.112 38.3219C307.359 38.3528 307.585 38.2962 307.806 38.1419C308.022 37.9875 308.156 37.7457 308.202 37.4164C308.284 36.799 307.955 36.1301 307.21 35.4098C306.474 34.6843 305.482 34.2418 304.248 34.0772Z" fill="white"/>
<path d="M303.718 74.9609C302.947 74.4669 302.176 74.3023 301.405 74.4566C300.634 74.611 300.017 75.0535 299.554 75.7738L298.885 76.8234L297.688 76.0619L297.23 76.7771L298.428 77.5386L295.6 81.984C295.364 82.3596 295.194 82.586 295.081 82.6632C294.968 82.7404 294.849 82.7713 294.721 82.7507C294.592 82.7352 294.34 82.6066 293.97 82.3699L293.754 82.231L293.379 82.8176L296.988 85.1175L297.364 84.5309L297.076 84.3457C296.736 84.1296 296.531 83.9701 296.464 83.8672C296.397 83.7643 296.376 83.6459 296.397 83.5122C296.418 83.3784 296.526 83.152 296.726 82.8381L299.626 78.2847L300.942 79.1233L301.4 78.4081L300.083 77.5695L300.937 76.2317C301.179 75.8458 301.395 75.5886 301.58 75.4445C301.765 75.3056 301.95 75.2233 302.135 75.2078C302.32 75.1924 302.49 75.2336 302.644 75.3313C302.87 75.4754 303.03 75.7429 303.127 76.134C303.22 76.5096 303.302 76.7565 303.379 76.8852C303.456 77.0138 303.569 77.127 303.724 77.2247C303.898 77.3328 304.078 77.3688 304.263 77.3276C304.449 77.2865 304.598 77.1836 304.706 77.0138C304.865 76.7617 304.87 76.4375 304.721 76.0362C304.567 75.6503 304.233 75.285 303.718 74.9609Z" fill="white"/>
<path d="M315.498 51.3135C314.783 50.9071 313.693 50.6035 312.217 50.408L304.454 49.3687L304.33 50.2742L304.947 50.3565C305.328 50.408 305.59 50.4852 305.734 50.5881C305.878 50.691 305.981 50.8453 306.042 51.046C306.104 51.2467 306.104 51.5657 306.048 52.003L304.726 61.8509C304.634 62.4992 304.572 62.8594 304.546 62.9365C304.479 63.1269 304.382 63.2761 304.258 63.3893C304.135 63.5025 304.006 63.5745 303.868 63.6054C303.729 63.6363 303.467 63.626 303.076 63.5745L302.557 63.5077L302.433 64.4132L308.192 65.185L308.315 64.2794L307.929 64.228C307.42 64.1611 307.081 64.0633 306.922 63.9398C306.762 63.8164 306.654 63.626 306.608 63.3687C306.587 63.235 306.613 62.9108 306.685 62.3911L307.307 57.7502L309.241 58.0074L313.806 65.9362L317.23 66.3941L317.354 65.4886L317.086 65.4525C316.742 65.4062 316.439 65.3085 316.176 65.1541C315.914 64.9998 315.673 64.7991 315.451 64.5418C315.364 64.4338 315.184 64.1611 314.917 63.7135L311.585 58.3264C312.819 58.4756 313.832 58.4293 314.624 58.1772C315.415 57.9303 316.053 57.5289 316.531 56.9733C317.009 56.4176 317.302 55.7487 317.405 54.9666C317.508 54.2051 317.395 53.5054 317.066 52.8725C316.732 52.2397 316.212 51.72 315.498 51.3135ZM315.097 54.802C314.999 55.512 314.747 56.078 314.336 56.4896C313.924 56.9012 313.405 57.1533 312.778 57.246C312.336 57.318 311.59 57.282 310.541 57.143L307.441 56.7263L308.202 51.0614L312.109 51.5862C312.973 51.7046 313.611 51.8898 314.017 52.1574C314.423 52.4198 314.727 52.7748 314.922 53.2224C315.122 53.67 315.179 54.1949 315.097 54.802Z" fill="white"/>
<path d="M316.829 75.1203C316.243 74.6521 315.554 74.3691 314.762 74.261C313.919 74.1479 313.112 74.2405 312.356 74.5389C311.595 74.8373 310.978 75.3004 310.5 75.9229C310.022 76.5507 309.729 77.2864 309.616 78.1405C309.462 79.2879 309.672 80.3169 310.243 81.2328C310.942 82.3544 312.012 83.013 313.446 83.2034C314.732 83.3732 315.842 83.0953 316.783 82.3699C317.724 81.6393 318.284 80.6102 318.464 79.2776C318.578 78.4184 318.495 77.6312 318.212 76.9314C317.925 76.2265 317.467 75.6245 316.829 75.1203ZM317.122 79.0924C317.02 79.859 316.783 80.5382 316.408 81.1247C316.032 81.7113 315.606 82.1229 315.122 82.3544C314.639 82.586 314.11 82.6632 313.534 82.586C312.953 82.5088 312.449 82.2876 312.027 81.9274C311.6 81.5672 311.292 81.0887 311.091 80.4919C310.891 79.895 310.845 79.1901 310.953 78.3823C311.066 77.5385 311.302 76.8439 311.657 76.3088C312.012 75.7686 312.444 75.3827 312.948 75.1512C313.451 74.9196 314.027 74.8425 314.675 74.9299C315.287 75.0122 315.775 75.2129 316.151 75.5319C316.526 75.8509 316.799 76.3037 316.973 76.8954C317.174 77.5848 317.225 78.3155 317.122 79.0924Z" fill="white"/>
<path d="M311.837 111.281C311.308 110.833 310.68 110.54 309.955 110.406C309.282 110.277 308.608 110.344 307.924 110.591C307.194 110.859 306.588 111.276 306.099 111.842C305.611 112.408 305.307 113.04 305.189 113.75C305.071 114.46 305.148 115.181 305.421 115.917C305.786 116.91 306.392 117.65 307.246 118.144C308.29 118.752 309.431 118.829 310.67 118.371C311.781 117.964 312.557 117.265 313.009 116.277C313.457 115.289 313.472 114.219 313.051 113.066C312.763 112.325 312.362 111.728 311.837 111.281ZM312.161 115.433C312.11 116.066 311.94 116.58 311.647 116.976C311.354 117.368 310.963 117.656 310.464 117.841C309.96 118.026 309.462 118.062 308.968 117.954C308.475 117.846 308.017 117.589 307.601 117.193C307.184 116.796 306.85 116.246 306.593 115.551C306.325 114.821 306.223 114.162 306.279 113.575C306.341 112.989 306.521 112.495 306.829 112.089C307.138 111.687 307.57 111.379 308.13 111.173C308.655 110.977 309.138 110.931 309.58 111.029C310.017 111.126 310.434 111.379 310.824 111.78C311.282 112.248 311.631 112.814 311.878 113.488C312.12 114.152 312.213 114.8 312.161 115.433Z" fill="white"/>
</svg>
