<svg width="19" height="18" viewBox="0 0 19 18" fill="none" xmlns="http://www.w3.org/2000/svg">
<path d="M6.59762 16.2563H2.9418C2.65619 16.2563 2.4277 16.0313 2.4277 15.7501V2.25007C2.4277 1.96882 2.65619 1.74382 2.9418 1.74382H9.3966V5.34382C9.3966 5.68132 9.68221 5.9907 10.0535 5.9907H13.6808V7.87507C13.6808 8.21257 13.9664 8.52195 14.3377 8.52195C14.709 8.52195 14.9946 8.2407 14.9946 7.87507V5.51257C14.9946 5.2032 14.8518 4.89382 14.6233 4.66882L10.6247 0.843822C10.3962 0.618822 10.0821 0.506322 9.76789 0.506322H2.91324C1.94217 0.478197 1.14246 1.29382 1.14246 2.25007V15.7501C1.14246 16.7063 1.94217 17.5219 2.9418 17.5219H6.62618C6.96891 17.5219 7.28308 17.2407 7.28308 16.8751C7.28308 16.5094 6.96891 16.2563 6.59762 16.2563ZM10.6533 2.64382L12.7954 4.72507H10.6533V2.64382Z" fill="#6C737F"/>
<path d="M16.9082 10.575C16.6797 10.35 16.4512 10.125 16.2227 9.89995C16.0228 9.70308 15.8228 9.47808 15.5944 9.2812C15.4801 9.14058 15.3087 9.02808 15.1088 8.99995C14.8803 8.97183 14.6518 9.02808 14.4805 9.1687L9.51085 14.0343C9.36805 14.175 9.28237 14.3156 9.22524 14.4843L8.51122 16.6218L8.39697 16.9593L8.5969 17.2125C8.68258 17.325 8.85395 17.4937 9.16812 17.4937H9.28237L11.5387 16.7625C11.7101 16.7062 11.8814 16.6218 11.9957 16.4812L16.9082 11.6718C17.051 11.5312 17.1367 11.3343 17.1367 11.1093C17.1367 10.9125 17.051 10.7156 16.9082 10.575ZM14.9946 10.4625C15.1088 10.575 15.2231 10.6875 15.3087 10.8C15.423 10.9125 15.5372 11.025 15.6515 11.1375L15.3373 11.4468L14.6804 10.8L14.9946 10.4625ZM11.1103 15.5812L10.1106 15.8906L10.4248 14.9062L13.7379 11.6437L14.3948 12.2906L11.1103 15.5812Z" fill="#6C737F"/>
</svg>
