<svg width="22" height="22" viewBox="0 0 22 22" fill="none" xmlns="http://www.w3.org/2000/svg">
<g opacity="0.5">
<path d="M19.2501 3.30005H2.7501C1.58135 3.30005 0.584473 4.26255 0.584473 5.46567V16.6032C0.584473 17.7719 1.54697 18.7688 2.7501 18.7688H19.2501C20.4188 18.7688 21.4157 17.8063 21.4157 16.6032V5.4313C21.4157 4.26255 20.4188 3.30005 19.2501 3.30005ZM19.2501 4.84692C19.2845 4.84692 19.3188 4.84692 19.3532 4.84692L11.0001 10.2094L2.64697 4.84692C2.68135 4.84692 2.71572 4.84692 2.7501 4.84692H19.2501ZM19.2501 17.1532H2.7501C2.40635 17.1532 2.13135 16.8782 2.13135 16.5344V6.35942L10.1751 11.5157C10.4157 11.6875 10.6907 11.7563 10.9657 11.7563C11.2407 11.7563 11.5157 11.6875 11.7563 11.5157L19.8001 6.35942V16.5688C19.8688 16.9125 19.5938 17.1532 19.2501 17.1532Z" fill="#6C737F"/>
</g>
</svg>
