<svg width="22" height="22" viewBox="0 0 22 22" fill="none" xmlns="http://www.w3.org/2000/svg">
<path d="M14.5799 11C14.5799 12.98 12.9799 14.58 10.9999 14.58C9.01992 14.58 7.41992 12.98 7.41992 11C7.41992 9.02004 9.01992 7.42004 10.9999 7.42004C12.9799 7.42004 14.5799 9.02004 14.5799 11Z" stroke="#6C737F" stroke-width="1.5" stroke-linecap="round" stroke-linejoin="round"/>
<path d="M11.0001 19.27C14.5301 19.27 17.8201 17.19 20.1101 13.59C21.0101 12.18 21.0101 9.80997 20.1101 8.39997C17.8201 4.79997 14.5301 2.71997 11.0001 2.71997C7.47009 2.71997 4.18009 4.79997 1.89009 8.39997C0.990088 9.80997 0.990088 12.18 1.89009 13.59C4.18009 17.19 7.47009 19.27 11.0001 19.27Z" stroke="#6C737F" stroke-width="1.5" stroke-linecap="round" stroke-linejoin="round"/>
</svg>
