<svg width="19" height="18" viewBox="0 0 19 18" fill="none" xmlns="http://www.w3.org/2000/svg">
<path d="M13.9663 2.47502H11.7671V1.9969C11.7671 1.15315 11.0817 0.478149 10.2248 0.478149H8.02565C7.16882 0.478149 6.48335 1.15315 6.48335 1.9969V2.47502H4.28415C3.45588 2.47502 2.77042 3.15002 2.77042 3.96565V4.8094C2.77042 5.42815 3.14171 5.9344 3.68437 6.1594L4.14135 15.8907C4.19847 16.8188 4.94106 17.5219 5.88357 17.5219H12.3098C13.2523 17.5219 14.0235 16.7907 14.052 15.8907L14.5661 6.13127C15.1088 5.90627 15.4801 5.3719 15.4801 4.78127V3.93752C15.4801 3.15002 14.7946 2.47502 13.9663 2.47502ZM7.79716 1.9969C7.79716 1.85627 7.9114 1.74377 8.05421 1.74377H10.2534C10.3962 1.74377 10.5105 1.85627 10.5105 1.9969V2.47502H7.82572V1.9969H7.79716ZM4.08422 3.96565C4.08422 3.85315 4.16991 3.74065 4.31271 3.74065H13.9663C14.0806 3.74065 14.1948 3.82502 14.1948 3.96565V4.8094C14.1948 4.9219 14.1092 5.0344 13.9663 5.0344H4.31271C4.19847 5.0344 4.08422 4.95003 4.08422 4.8094V3.96565ZM12.3384 16.2563H5.94069C5.68364 16.2563 5.48372 16.0594 5.48372 15.8344L5.02674 6.30002H13.2809L12.8239 15.8344C12.7953 16.0594 12.5954 16.2563 12.3384 16.2563Z" fill="#052052"/>
<path d="M9.13954 8.74689C8.79681 8.74689 8.48264 9.02814 8.48264 9.39376V13.7531C8.48264 14.0906 8.76825 14.4 9.13954 14.4C9.48227 14.4 9.79644 14.1188 9.79644 13.7531V9.36564C9.79644 9.02814 9.48227 8.74689 9.13954 8.74689Z" fill="#052052"/>
<path d="M11.7957 9.2813C11.453 9.25317 11.1388 9.53442 11.1102 9.87192L10.9389 13.1063C10.9103 13.4438 11.1959 13.7532 11.5386 13.7813H11.5672C11.9099 13.7813 12.1955 13.5282 12.1955 13.1907L12.3669 9.9563C12.424 9.59068 12.1384 9.30942 11.7957 9.2813Z" fill="#052052"/>
<path d="M6.45478 9.2813C6.11205 9.30942 5.82644 9.59068 5.855 9.9563L6.05493 13.2188C6.08349 13.5563 6.3691 13.8094 6.68327 13.8094H6.71183C7.05456 13.7813 7.34017 13.5001 7.31161 13.1344L7.14025 9.87192C7.11169 9.53442 6.79751 9.25317 6.45478 9.2813Z" fill="#052052"/>
</svg>
