<svg width="19" height="18" viewBox="0 0 19 18" fill="none" xmlns="http://www.w3.org/2000/svg">
<path fill-rule="evenodd" clip-rule="evenodd" d="M8.37803 3C5.43358 3 3.04663 5.3505 3.04663 8.25C3.04663 11.1495 5.43358 13.5 8.37803 13.5C11.3225 13.5 13.7094 11.1495 13.7094 8.25C13.7094 5.3505 11.3225 3 8.37803 3ZM1.52338 8.25C1.52338 4.52208 4.59231 1.5 8.37803 1.5C12.1637 1.5 15.2327 4.52208 15.2327 8.25C15.2327 11.9779 12.1637 15 8.37803 15C4.59231 15 1.52338 11.9779 1.52338 8.25Z" fill="#6C737F"/>
<path fill-rule="evenodd" clip-rule="evenodd" d="M12.1427 11.9572C12.4401 11.6643 12.9223 11.6643 13.2198 11.9572L16.5329 15.2197C16.8303 15.5126 16.8303 15.9875 16.5329 16.2804C16.2354 16.5733 15.7532 16.5733 15.4558 16.2804L12.1427 13.0179C11.8452 12.725 11.8452 12.2501 12.1427 11.9572Z" fill="#6C737F"/>
</svg>
