<svg width="24" height="24" viewBox="0 0 24 24" fill="none" xmlns="http://www.w3.org/2000/svg">
<path d="M18.0001 7.16C17.9401 7.15 17.8701 7.15 17.8101 7.16C16.4301 7.11 15.3301 5.98 15.3301 4.58C15.3301 3.15 16.4801 2 17.9101 2C19.3401 2 20.4901 3.16 20.4901 4.58C20.4801 5.98 19.3801 7.11 18.0001 7.16Z" stroke="white" stroke-width="1.5" stroke-linecap="round" stroke-linejoin="round"/>
<path d="M16.9701 14.4399C18.3401 14.6699 19.8501 14.4299 20.9101 13.7199C22.3201 12.7799 22.3201 11.2399 20.9101 10.2999C19.8401 9.58992 18.3101 9.34991 16.9401 9.58991" stroke="white" stroke-width="1.5" stroke-linecap="round" stroke-linejoin="round"/>
<path d="M5.96974 7.16C6.02974 7.15 6.09974 7.15 6.15974 7.16C7.53974 7.11 8.63974 5.98 8.63974 4.58C8.63974 3.15 7.48974 2 6.05974 2C4.62974 2 3.47974 3.16 3.47974 4.58C3.48974 5.98 4.58974 7.11 5.96974 7.16Z" stroke="white" stroke-width="1.5" stroke-linecap="round" stroke-linejoin="round"/>
<path d="M7.00006 14.4399C5.63006 14.6699 4.12006 14.4299 3.06006 13.7199C1.65006 12.7799 1.65006 11.2399 3.06006 10.2999C4.13006 9.58992 5.66006 9.34991 7.03006 9.58991" stroke="white" stroke-width="1.5" stroke-linecap="round" stroke-linejoin="round"/>
<path d="M12.0001 14.63C11.9401 14.62 11.8701 14.62 11.8101 14.63C10.4301 14.58 9.33014 13.45 9.33014 12.05C9.33014 10.62 10.4801 9.46997 11.9101 9.46997C13.3401 9.46997 14.4901 10.63 14.4901 12.05C14.4801 13.45 13.3801 14.59 12.0001 14.63Z" stroke="white" stroke-width="1.5" stroke-linecap="round" stroke-linejoin="round"/>
<path d="M9.09009 17.7801C7.68009 18.7201 7.68009 20.2601 9.09009 21.2001C10.6901 22.2701 13.3101 22.2701 14.9101 21.2001C16.3201 20.2601 16.3201 18.7201 14.9101 17.7801C13.3201 16.7201 10.6901 16.7201 9.09009 17.7801Z" stroke="white" stroke-width="1.5" stroke-linecap="round" stroke-linejoin="round"/>
</svg>
