<svg width="224" height="186" viewBox="0 0 224 186" fill="none" xmlns="http://www.w3.org/2000/svg">
<path d="M187.61 0V26.97H179.72V7.93719H8.01311V178.016H179.622V158.894H187.61V186.004H0V0H187.61Z" fill="#052052"/>
<path d="M50.4865 86.375C50.2479 85.5455 49.9126 84.8125 49.4808 84.1761C49.049 83.5284 48.5206 82.983 47.8956 82.5398C47.282 82.0852 46.5774 81.7386 45.782 81.5C44.9979 81.2614 44.1286 81.142 43.174 81.142C41.3899 81.142 39.8217 81.5852 38.4695 82.4716C37.1286 83.358 36.0831 84.6477 35.3331 86.3409C34.5831 88.0227 34.2081 90.0795 34.2081 92.5114C34.2081 94.9432 34.5774 97.0114 35.3161 98.7159C36.0547 100.42 37.1001 101.722 38.4524 102.619C39.8047 103.506 41.4013 103.949 43.2422 103.949C44.9126 103.949 46.3388 103.653 47.5206 103.062C48.7138 102.46 49.6229 101.614 50.2479 100.523C50.8842 99.4318 51.2024 98.142 51.2024 96.6534L52.7024 96.875H43.7024V91.3182H58.3104V95.7159C58.3104 98.7841 57.6626 101.42 56.3672 103.625C55.0717 105.818 53.2876 107.511 51.0149 108.705C48.7422 109.886 46.1399 110.477 43.2081 110.477C39.9354 110.477 37.0604 109.756 34.5831 108.312C32.1058 106.858 30.174 104.795 28.7876 102.125C27.4126 99.4432 26.7251 96.2614 26.7251 92.5795C26.7251 89.75 27.1342 87.2273 27.9524 85.0114C28.782 82.7841 29.9411 80.8977 31.4297 79.3523C32.9183 77.8068 34.6513 76.6307 36.6286 75.8239C38.6058 75.017 40.7479 74.6136 43.0547 74.6136C45.032 74.6136 46.8729 74.9034 48.5774 75.483C50.282 76.0511 51.7933 76.858 53.1115 77.9034C54.4411 78.9489 55.5263 80.1932 56.3672 81.6364C57.2081 83.0682 57.7479 84.6477 57.9865 86.375H50.4865ZM80.0305 89.6648V95.4261H64.1101V89.6648H80.0305ZM105.292 85.1307C105.156 83.7557 104.57 82.6875 103.536 81.9261C102.502 81.1648 101.099 80.7841 99.326 80.7841C98.1214 80.7841 97.1044 80.9545 96.2749 81.2955C95.4453 81.625 94.8089 82.0852 94.3658 82.6761C93.9339 83.267 93.718 83.9375 93.718 84.6875C93.6953 85.3125 93.826 85.858 94.1101 86.3239C94.4055 86.7898 94.8089 87.1932 95.3203 87.5341C95.8317 87.8636 96.4226 88.1534 97.093 88.4034C97.7635 88.642 98.4794 88.8466 99.2408 89.017L102.377 89.767C103.9 90.108 105.298 90.5625 106.57 91.1307C107.843 91.6989 108.945 92.3977 109.877 93.2273C110.809 94.0568 111.531 95.0341 112.042 96.1591C112.565 97.2841 112.832 98.5739 112.843 100.028C112.832 102.165 112.286 104.017 111.207 105.585C110.138 107.142 108.593 108.352 106.57 109.216C104.559 110.068 102.133 110.494 99.2919 110.494C96.4737 110.494 94.0192 110.062 91.9283 109.199C89.8487 108.335 88.2237 107.057 87.0533 105.364C85.8942 103.659 85.2862 101.551 85.2294 99.0398H92.3714C92.451 100.21 92.7862 101.187 93.3771 101.972C93.9794 102.744 94.7805 103.33 95.7805 103.727C96.7919 104.114 97.9339 104.307 99.2067 104.307C100.457 104.307 101.542 104.125 102.462 103.761C103.394 103.398 104.116 102.892 104.627 102.244C105.138 101.597 105.394 100.852 105.394 100.011C105.394 99.2273 105.161 98.5682 104.695 98.0341C104.241 97.5 103.57 97.0455 102.684 96.6705C101.809 96.2955 100.735 95.9545 99.4624 95.6477L95.6612 94.6932C92.718 93.9773 90.3942 92.858 88.6896 91.3352C86.9851 89.8125 86.1385 87.7614 86.1499 85.1818C86.1385 83.0682 86.701 81.2216 87.8374 79.642C88.9851 78.0625 90.5589 76.8295 92.5589 75.9432C94.5589 75.0568 96.8317 74.6136 99.3771 74.6136C101.968 74.6136 104.229 75.0568 106.161 75.9432C108.104 76.8295 109.616 78.0625 110.695 79.642C111.775 81.2216 112.332 83.0511 112.366 85.1307H105.292ZM129.501 110.511C126.819 110.511 124.512 109.943 122.58 108.807C120.66 107.659 119.183 106.068 118.148 104.034C117.126 102 116.614 99.6591 116.614 97.0114C116.614 94.3295 117.131 91.9773 118.165 89.9545C119.211 87.9205 120.694 86.3352 122.614 85.1989C124.535 84.0511 126.819 83.4773 129.467 83.4773C131.751 83.4773 133.751 83.892 135.467 84.7216C137.183 85.5511 138.54 86.7159 139.54 88.2159C140.54 89.7159 141.092 91.4773 141.194 93.5H134.342C134.148 92.1932 133.637 91.142 132.808 90.3466C131.989 89.5398 130.915 89.1364 129.586 89.1364C128.461 89.1364 127.478 89.4432 126.637 90.0568C125.808 90.6591 125.16 91.5398 124.694 92.6989C124.228 93.858 123.995 95.2614 123.995 96.9091C123.995 98.5795 124.222 100 124.677 101.17C125.143 102.341 125.796 103.233 126.637 103.847C127.478 104.46 128.461 104.767 129.586 104.767C130.415 104.767 131.16 104.597 131.819 104.256C132.489 103.915 133.04 103.42 133.472 102.773C133.915 102.114 134.205 101.324 134.342 100.403H141.194C141.08 102.403 140.535 104.165 139.558 105.688C138.592 107.199 137.256 108.381 135.552 109.233C133.847 110.085 131.83 110.511 129.501 110.511ZM145.843 110V83.8182H152.883V88.3864H153.156C153.633 86.7614 154.434 85.5341 155.559 84.7045C156.684 83.8636 157.979 83.4432 159.445 83.4432C159.809 83.4432 160.201 83.4659 160.621 83.5114C161.042 83.5568 161.411 83.6193 161.729 83.6989V90.142C161.388 90.0398 160.917 89.9489 160.315 89.8693C159.712 89.7898 159.161 89.75 158.661 89.75C157.593 89.75 156.638 89.983 155.798 90.4489C154.968 90.9034 154.309 91.5398 153.82 92.358C153.343 93.1761 153.104 94.1193 153.104 95.1875V110H145.843ZM165.484 110V83.8182H172.745V110H165.484ZM169.131 80.4432C168.052 80.4432 167.126 80.0852 166.353 79.3693C165.592 78.642 165.211 77.7727 165.211 76.7614C165.211 75.7614 165.592 74.9034 166.353 74.1875C167.126 73.4602 168.052 73.0966 169.131 73.0966C170.211 73.0966 171.131 73.4602 171.893 74.1875C172.665 74.9034 173.052 75.7614 173.052 76.7614C173.052 77.7727 172.665 78.642 171.893 79.3693C171.131 80.0852 170.211 80.4432 169.131 80.4432ZM178.562 119.818V83.8182H185.721V88.2159H186.045C186.363 87.5114 186.823 86.7955 187.425 86.0682C188.039 85.3295 188.835 84.7159 189.812 84.2273C190.8 83.7273 192.028 83.4773 193.494 83.4773C195.403 83.4773 197.164 83.9773 198.778 84.9773C200.391 85.9659 201.681 87.4602 202.647 89.4602C203.613 91.4489 204.096 93.9432 204.096 96.9432C204.096 99.8636 203.624 102.33 202.681 104.341C201.749 106.341 200.477 107.858 198.863 108.892C197.261 109.915 195.465 110.426 193.477 110.426C192.067 110.426 190.869 110.193 189.88 109.727C188.903 109.261 188.102 108.676 187.477 107.972C186.852 107.256 186.374 106.534 186.045 105.807H185.823V119.818H178.562ZM185.67 96.9091C185.67 98.4659 185.886 99.8239 186.317 100.983C186.749 102.142 187.374 103.045 188.192 103.693C189.011 104.33 190.005 104.648 191.175 104.648C192.357 104.648 193.357 104.324 194.175 103.676C194.994 103.017 195.613 102.108 196.033 100.949C196.465 99.7784 196.681 98.4318 196.681 96.9091C196.681 95.3977 196.471 94.0682 196.05 92.9205C195.63 91.7727 195.011 90.875 194.192 90.2273C193.374 89.5795 192.369 89.2557 191.175 89.2557C189.994 89.2557 188.994 89.5682 188.175 90.1932C187.369 90.8182 186.749 91.7045 186.317 92.8523C185.886 94 185.67 95.3523 185.67 96.9091ZM222.863 83.8182V89.2727H207.096V83.8182H222.863ZM210.675 77.5455H217.937V101.955C217.937 102.625 218.039 103.148 218.244 103.523C218.448 103.886 218.732 104.142 219.096 104.29C219.471 104.437 219.903 104.511 220.391 104.511C220.732 104.511 221.073 104.483 221.414 104.426C221.755 104.358 222.016 104.307 222.198 104.273L223.34 109.676C222.977 109.79 222.465 109.92 221.806 110.068C221.147 110.227 220.346 110.324 219.403 110.358C217.653 110.426 216.119 110.193 214.8 109.659C213.494 109.125 212.477 108.295 211.749 107.17C211.022 106.045 210.664 104.625 210.675 102.909V77.5455Z" fill="#052052"/>
</svg>
