<svg width="72" height="59" viewBox="0 0 72 59" fill="none" xmlns="http://www.w3.org/2000/svg">
<g clip-path="url(#clip0_222_4095)">
<mask id="mask0_222_4095" style="mask-type:luminance" maskUnits="userSpaceOnUse" x="0" y="0" width="72" height="59">
<path d="M72 0H0V59H72V0Z" fill="white"/>
</mask>
<g mask="url(#mask0_222_4095)">
<path d="M60.0352 0V8.555H57.5104V2.51771H2.5642V56.4674H57.479V50.4019H60.0352V59.0013H0V0H60.0352Z" fill="white"/>
<path d="M16.1559 27.3985C16.0795 27.1354 15.9722 26.9029 15.8341 26.701C15.6959 26.4955 15.5268 26.3225 15.3268 26.1819C15.1305 26.0377 14.905 25.9278 14.6505 25.8521C14.3995 25.7764 14.1214 25.7386 13.8159 25.7386C13.245 25.7386 12.7432 25.8791 12.3105 26.1603C11.8814 26.4415 11.5468 26.8506 11.3068 27.3877C11.0668 27.9211 10.9468 28.5736 10.9468 29.345C10.9468 30.1164 11.065 30.7724 11.3014 31.3131C11.5377 31.8536 11.8722 32.2666 12.305 32.5512C12.7377 32.8325 13.2486 32.973 13.8377 32.973C14.3722 32.973 14.8286 32.8791 15.2068 32.6917C15.5886 32.5007 15.8795 32.2324 16.0795 31.8863C16.2832 31.5402 16.385 31.131 16.385 30.6588L16.865 30.7291H13.985V28.9665H18.6595V30.3615C18.6595 31.3347 18.4522 32.1708 18.0377 32.8703C17.6232 33.5659 17.0522 34.1029 16.325 34.4817C15.5977 34.8563 14.765 35.0437 13.8268 35.0437C12.7795 35.0437 11.8595 34.815 11.0668 34.357C10.2741 33.8958 9.65589 33.2414 9.21225 32.3945C8.77225 31.5438 8.55225 30.5345 8.55225 29.3666C8.55225 28.4691 8.68316 27.6688 8.94498 26.9659C9.21045 26.2594 9.58137 25.6611 10.0577 25.1709C10.5341 24.6806 11.0886 24.3076 11.7214 24.0516C12.3541 23.7957 13.0395 23.6677 13.7777 23.6677C14.4105 23.6677 14.9995 23.7596 15.545 23.9435C16.0905 24.1237 16.5741 24.3797 16.9959 24.7113C17.4214 25.0429 17.7686 25.4376 18.0377 25.8954C18.3068 26.3496 18.4795 26.8506 18.5559 27.3985H16.1559ZM25.61 28.442V30.2695H20.5154V28.442H25.61ZM33.6937 27.0038C33.6501 26.5676 33.4626 26.2288 33.1317 25.9873C32.8009 25.7458 32.3519 25.625 31.7845 25.625C31.3991 25.625 31.0736 25.6791 30.8082 25.7872C30.5427 25.8918 30.3391 26.0377 30.1973 26.2252C30.0591 26.4126 29.99 26.6253 29.99 26.8632C29.9827 27.0615 30.0245 27.2345 30.1154 27.3823C30.21 27.5301 30.3391 27.658 30.5027 27.7662C30.6664 27.8707 30.8554 27.9626 31.07 28.0419C31.2845 28.1176 31.5136 28.1825 31.7573 28.2365L32.7609 28.4744C33.2482 28.5826 33.6956 28.7268 34.1026 28.907C34.51 29.0873 34.8626 29.3089 35.1609 29.5721C35.4591 29.8352 35.6901 30.1452 35.8537 30.502C36.021 30.8589 36.1065 31.268 36.11 31.7293C36.1065 32.4071 35.9317 32.9946 35.5865 33.492C35.2444 33.9859 34.75 34.3697 34.1026 34.6438C33.4591 34.914 32.6828 35.0491 31.7736 35.0491C30.8718 35.0491 30.0864 34.9121 29.4173 34.6384C28.7518 34.3643 28.2318 33.9589 27.8573 33.4219C27.4864 32.881 27.2918 32.2124 27.2736 31.4158H29.5591C29.5845 31.787 29.6918 32.0969 29.8809 32.3459C30.0736 32.5908 30.33 32.7767 30.65 32.9026C30.9736 33.0254 31.3391 33.0866 31.7464 33.0866C32.1465 33.0866 32.4937 33.0289 32.7881 32.9134C33.0863 32.7983 33.3173 32.6378 33.4809 32.4322C33.6444 32.227 33.7263 31.9907 33.7263 31.7239C33.7263 31.4753 33.6517 31.2662 33.5026 31.0968C33.3573 30.9274 33.1426 30.7832 32.8591 30.6643C32.5791 30.5453 32.2354 30.4371 31.8282 30.3398L30.6118 30.0371C29.67 29.81 28.9264 29.4549 28.3809 28.9719C27.8354 28.4889 27.5645 27.8383 27.5682 27.02C27.5645 26.3496 27.7445 25.7638 28.1082 25.2628C28.4754 24.7617 28.9791 24.3706 29.6191 24.0895C30.2591 23.8083 30.9864 23.6677 31.8009 23.6677C32.63 23.6677 33.3535 23.8083 33.9717 24.0895C34.5935 24.3706 35.0773 24.7617 35.4226 25.2628C35.7682 25.7638 35.9465 26.3441 35.9573 27.0038H33.6937ZM41.4405 35.0545C40.5823 35.0545 39.8441 34.8744 39.2258 34.514C38.6114 34.1499 38.1388 33.6452 37.8076 33C37.4805 32.3548 37.3167 31.6123 37.3167 30.7724C37.3167 29.9217 37.4821 29.1756 37.813 28.5339C38.1477 27.8887 38.6223 27.3859 39.2367 27.0254C39.8514 26.6613 40.5823 26.4793 41.4297 26.4793C42.1605 26.4793 42.8005 26.6109 43.3497 26.874C43.8988 27.1371 44.333 27.5066 44.653 27.9824C44.973 28.4582 45.1497 29.017 45.1823 29.6586H42.9897C42.9276 29.244 42.7641 28.9106 42.4988 28.6583C42.2367 28.4024 41.893 28.2744 41.4677 28.2744C41.1077 28.2744 40.7932 28.3717 40.5241 28.5664C40.2588 28.7574 40.0514 29.0368 39.9023 29.4045C39.7532 29.7721 39.6786 30.2173 39.6786 30.74C39.6786 31.2698 39.7513 31.7204 39.8969 32.0915C40.046 32.463 40.2549 32.7459 40.5241 32.9407C40.7932 33.1351 41.1077 33.2325 41.4677 33.2325C41.733 33.2325 41.9714 33.1786 42.1823 33.0704C42.3967 32.9622 42.573 32.8052 42.7113 32.6C42.853 32.391 42.9458 32.1404 42.9897 31.8482H45.1823C45.1458 32.4826 44.9714 33.0416 44.6588 33.5247C44.3497 34.004 43.9221 34.3789 43.3769 34.6491C42.8313 34.9194 42.1858 35.0545 41.4405 35.0545ZM46.67 34.8924V26.5875H48.9228V28.0365H49.0101C49.1628 27.5211 49.4191 27.1318 49.7791 26.8686C50.1391 26.6019 50.5535 26.4685 51.0226 26.4685C51.1391 26.4685 51.2645 26.4757 51.3989 26.4901C51.5337 26.5045 51.6517 26.5244 51.7535 26.5496V28.5934C51.6444 28.561 51.4937 28.5321 51.301 28.5069C51.1081 28.4817 50.9317 28.4691 50.7717 28.4691C50.43 28.4691 50.1244 28.543 49.8556 28.6907C49.59 28.8349 49.3791 29.0368 49.2226 29.2963C49.07 29.5558 48.9935 29.855 48.9935 30.1939V34.8924H46.67ZM52.9551 34.8924V26.5875H55.2786V34.8924H52.9551ZM54.1221 25.5169C53.7769 25.5169 53.4805 25.4033 53.2332 25.1762C52.9897 24.9455 52.8677 24.6698 52.8677 24.349C52.8677 24.0318 52.9897 23.7596 53.2332 23.5326C53.4805 23.3019 53.7769 23.1865 54.1221 23.1865C54.4677 23.1865 54.7621 23.3019 55.006 23.5326C55.253 23.7596 55.3769 24.0318 55.3769 24.349C55.3769 24.6698 55.253 24.9455 55.006 25.1762C54.7621 25.4033 54.4677 25.5169 54.1221 25.5169ZM57.1401 38.0068V26.5875H59.4309V27.9824H59.5346C59.6364 27.759 59.7836 27.5319 59.9762 27.3012C60.1727 27.0669 60.4274 26.8722 60.7401 26.7172C61.0562 26.5586 61.4492 26.4793 61.9183 26.4793C62.5292 26.4793 63.0927 26.6379 63.6092 26.9551C64.1253 27.2687 64.5381 27.7427 64.8473 28.3771C65.1564 29.0079 65.3109 29.7992 65.3109 30.7508C65.3109 31.6771 65.1599 32.4595 64.8581 33.0974C64.5599 33.7318 64.1529 34.213 63.6364 34.541C63.1237 34.8655 62.549 35.0276 61.9129 35.0276C61.4617 35.0276 61.0783 34.9537 60.7618 34.8058C60.4492 34.658 60.1929 34.4725 59.9929 34.2491C59.7929 34.022 59.6399 33.793 59.5346 33.5624H59.4636V38.0068H57.1401ZM59.4146 30.74C59.4146 31.2338 59.4837 31.6645 59.6217 32.0322C59.7599 32.3998 59.9599 32.6863 60.2217 32.8918C60.4837 33.0939 60.8018 33.1948 61.1762 33.1948C61.5545 33.1948 61.8745 33.092 62.1362 32.8864C62.3983 32.6774 62.5964 32.3891 62.7308 32.0214C62.869 31.6501 62.9381 31.223 62.9381 30.74C62.9381 30.2605 62.8709 29.8388 62.7362 29.4747C62.6018 29.1107 62.4037 28.8259 62.1417 28.6205C61.8799 28.415 61.5583 28.3123 61.1762 28.3123C60.7983 28.3123 60.4783 28.4114 60.2162 28.6096C59.9583 28.8079 59.7599 29.089 59.6217 29.4531C59.4837 29.8172 59.4146 30.2461 59.4146 30.74ZM71.3164 26.5875V28.3176H66.2709V26.5875H71.3164ZM67.4162 24.5977H69.7401V32.3405C69.7401 32.5531 69.7727 32.719 69.8383 32.8379C69.9036 32.9531 69.9944 33.0343 70.1109 33.0812C70.2309 33.1278 70.3692 33.1513 70.5253 33.1513C70.6345 33.1513 70.7436 33.1424 70.8527 33.1243C70.9618 33.1028 71.0453 33.0866 71.1036 33.0758L71.469 34.7897C71.3529 34.8258 71.189 34.8671 70.9781 34.914C70.7673 34.9644 70.5109 34.9952 70.2092 35.006C69.6492 35.0276 69.1583 34.9537 68.7362 34.7843C68.3183 34.6149 67.9929 34.3516 67.7599 33.9948C67.5273 33.6379 67.4127 33.1875 67.4162 32.6431V24.5977Z" fill="white"/>
</g>
</g>
<defs>
<clipPath id="clip0_222_4095">
<rect width="72" height="59" fill="white"/>
</clipPath>
</defs>
</svg>
